<svg version="1.1" id="Layer_1" xmlns="http://www.w3.org/2000/svg" xmlns:xlink="http://www.w3.org/1999/xlink" x="0px" y="0px"
	 width="100%" viewBox="0 0 512 512" enable-background="new 0 0 512 512" xml:space="preserve">
<path fill="#FFFFFF" opacity="0.000000" stroke="none" 
	d="
M285.000000,513.000000 
	C190.023056,513.000000 95.546112,513.000000 1.034582,513.000000 
	C1.034582,342.398041 1.034582,171.796051 1.034582,1.097036 
	C171.560287,1.097036 342.120667,1.097036 512.840515,1.097036 
	C512.840515,171.666550 512.840515,342.333252 512.840515,513.000000 
	C437.129364,513.000000 361.314667,513.000000 285.000000,513.000000 
M48.268524,275.425568 
	C48.192169,275.749146 48.049042,276.072723 48.048901,276.396332 
	C48.024067,333.210266 47.759098,390.025909 48.155376,446.836975 
	C48.266331,462.744049 57.603115,473.038879 75.551666,473.025757 
	C157.524139,472.965881 239.496704,472.999542 321.469238,472.999512 
	C361.122620,472.999512 400.776001,473.018463 440.429382,472.988617 
	C453.561066,472.978729 464.907715,462.350769 464.947113,449.533783 
	C465.080231,406.215363 465.052460,362.896179 464.958588,319.577576 
	C464.935791,309.070068 457.072998,298.975708 446.781982,297.159088 
	C439.685455,295.906342 432.303650,296.269501 425.005585,294.985321 
	C425.004120,280.821411 425.014893,266.657501 424.998840,252.493607 
	C424.958252,216.670319 424.905609,180.847031 425.014069,144.262955 
	C424.839478,143.480545 424.879944,142.549301 424.457275,141.938553 
	C419.777924,135.176636 415.176971,128.352585 410.268066,121.758797 
	C392.486725,97.874275 374.716949,73.978661 356.624420,50.330830 
	C353.664856,46.462582 351.662781,40.609173 344.582367,40.167004 
	C344.086670,40.113873 343.590973,40.014256 343.095276,40.014191 
	C269.949677,40.004967 196.804016,39.977501 123.658539,40.075916 
	C120.007309,40.080830 116.138641,40.599651 112.747009,41.876984 
	C101.312599,46.183350 96.061356,55.093616 96.041504,66.979073 
	C95.940742,127.294815 95.982346,187.610794 95.042053,247.983414 
	C91.232353,247.989548 87.406593,247.774872 83.616493,248.050491 
	C76.930084,248.536697 70.022285,248.435394 63.647053,250.183899 
	C53.374889,253.001175 47.503250,264.982025 48.268524,275.425568 
z"/>
<path fill="#D7DFE2" opacity="1.000000" stroke="none" 
	d="
M95.974075,247.926697 
	C95.982346,187.610794 95.940742,127.294815 96.041504,66.979073 
	C96.061356,55.093616 101.312599,46.183350 112.747009,41.876984 
	C116.138641,40.599651 120.007309,40.080830 123.658539,40.075916 
	C196.804016,39.977501 269.949677,40.004967 343.095276,40.014191 
	C343.590973,40.014256 344.086670,40.113873 344.785431,41.010326 
	C344.976715,67.515617 345.384003,93.187202 344.795502,118.835945 
	C344.444031,134.152145 355.010559,145.289490 371.368927,145.044006 
	C389.194611,144.776505 407.027832,145.009140 424.857758,145.023743 
	C424.905609,180.847031 424.958252,216.670319 424.998840,252.493607 
	C425.014893,266.657501 425.004120,280.821411 424.646698,295.624146 
	C421.975189,296.408844 419.662628,296.681885 417.349976,296.682343 
	C312.665375,296.703400 207.980789,296.699951 103.296196,296.705231 
	C101.301369,296.705322 99.306549,296.774902 97.203583,296.370789 
	C97.059044,281.630371 97.055992,267.331024 96.942207,253.032562 
	C96.928650,251.328140 96.311470,249.628540 95.974075,247.926697 
M225.500000,184.873199 
	C211.836777,184.873215 198.173553,184.870712 184.510330,184.874451 
	C179.178482,184.875916 173.841919,184.756302 168.516235,184.942154 
	C164.059036,185.097702 161.382874,187.644653 160.988129,192.078873 
	C160.591507,196.534103 162.905518,199.368820 167.162613,200.483643 
	C168.582062,200.855347 170.131134,200.821503 171.621002,200.821884 
	C230.939377,200.837311 290.257751,200.842392 349.576080,200.804611 
	C351.542511,200.803360 353.637726,200.694565 355.447937,200.026398 
	C359.173676,198.651138 360.868744,195.659042 360.337372,191.733139 
	C359.808655,187.826782 357.459442,185.433014 353.462891,184.971054 
	C351.816559,184.780762 350.134857,184.876358 348.469238,184.876205 
	C307.812836,184.872360 267.156403,184.873154 225.500000,184.873199 
M166.642426,248.285675 
	C168.454483,248.450638 170.266495,248.759048 172.078629,248.759827 
	C231.186127,248.785126 290.293640,248.780853 349.401154,248.780579 
	C350.233643,248.780579 351.068909,248.818604 351.898163,248.765320 
	C357.216949,248.423492 360.729675,244.989105 360.525330,240.355606 
	C360.327728,235.873978 356.952301,232.846741 351.686523,232.843613 
	C291.080505,232.807693 230.474472,232.833420 169.868484,232.793915 
	C165.507095,232.791061 162.253098,234.390503 161.178009,238.689331 
	C160.126587,242.893646 161.760376,246.192642 166.642426,248.285675 
M276.236053,137.771011 
	C274.621979,137.474350 273.008331,136.921219 271.393799,136.918808 
	C237.588226,136.868439 203.782532,136.855759 169.976944,136.904022 
	C164.294601,136.912140 161.007263,139.888611 160.923767,144.673798 
	C160.837082,149.642075 164.262039,152.846985 170.157990,152.856720 
	C203.797028,152.912262 237.436188,152.876312 271.075317,152.898483 
	C275.067078,152.901123 278.358185,151.699677 279.946320,147.778122 
	C281.538635,143.846222 280.251892,140.638519 276.236053,137.771011 
z"/>
<path fill="#20B35B" opacity="1.000000" stroke="none" 
	d="
M97.311722,296.812103 
	C99.306549,296.774902 101.301369,296.705322 103.296196,296.705231 
	C207.980789,296.699951 312.665375,296.703400 417.349976,296.682343 
	C419.662628,296.681885 421.975189,296.408844 424.668579,296.086731 
	C432.303650,296.269501 439.685455,295.906342 446.781982,297.159088 
	C457.072998,298.975708 464.935791,309.070068 464.958588,319.577576 
	C465.052460,362.896179 465.080231,406.215363 464.947113,449.533783 
	C464.907715,462.350769 453.561066,472.978729 440.429382,472.988617 
	C400.776001,473.018463 361.122620,472.999512 321.469238,472.999512 
	C239.496704,472.999542 157.524139,472.965881 75.551666,473.025757 
	C57.603115,473.038879 48.266331,462.744049 48.155376,446.836975 
	C47.759098,390.025909 48.024067,333.210266 48.048901,276.396332 
	C48.049042,276.072723 48.192169,275.749146 48.645027,275.566528 
	C52.208401,288.907959 60.442287,296.398895 72.992981,296.882477 
	C81.086311,297.194305 89.204613,296.857941 97.311722,296.812103 
M237.441742,398.061615 
	C231.498810,395.434387 225.893646,397.246887 225.116623,402.545563 
	C223.530243,413.363129 226.059128,425.118591 238.962906,430.070709 
	C250.967392,434.677734 264.007690,434.336975 276.172272,430.210663 
	C285.941071,426.896973 290.301788,418.465790 290.696686,408.299164 
	C291.103088,397.836700 287.342407,389.360901 277.807343,384.196106 
	C274.750885,382.540527 271.421143,381.377411 268.182953,380.071899 
	C261.089142,377.211914 253.916672,374.538788 246.886200,371.532410 
	C241.610306,369.276306 239.537933,364.538574 241.059357,358.676666 
	C242.335922,353.758118 246.103149,352.521362 250.681091,352.617859 
	C254.344086,352.695068 258.010040,352.628906 261.674683,352.631378 
	C272.699005,352.638824 273.869171,353.710876 274.786774,364.633057 
	C275.171417,369.211304 278.114075,372.300293 282.278900,372.497620 
	C286.419159,372.693787 289.746826,369.838379 290.560272,365.391510 
	C293.156433,351.199310 282.512787,337.439331 268.184784,336.801758 
	C261.203278,336.491150 254.192368,336.604462 247.201965,336.792816 
	C239.510986,337.000031 233.486038,340.629578 229.100616,346.815063 
	C220.057907,359.569519 224.718643,378.645966 238.860672,385.286102 
	C248.478668,389.802094 258.540802,393.367218 268.370209,397.439880 
	C273.721741,399.657166 275.679108,403.660400 274.500031,409.504913 
	C273.531555,414.305542 270.884430,416.274506 265.048157,416.353058 
	C260.051849,416.420319 255.052658,416.433807 250.056946,416.346100 
	C243.598938,416.232758 241.280746,413.622162 240.698212,407.271240 
	C240.425888,404.302521 238.951920,401.444031 237.441742,398.061615 
M173.569641,352.641266 
	C184.851242,351.907776 192.727325,356.508179 197.195633,367.118408 
	C199.254547,372.007416 204.104782,373.684296 208.282715,371.676849 
	C212.240555,369.775238 213.631805,365.289825 211.730011,360.562866 
	C205.057999,343.979431 191.610489,336.022614 171.485214,336.750214 
	C152.037369,337.453339 136.010971,351.270813 133.407013,370.536743 
	C132.345200,378.392853 132.813080,386.493927 133.004730,394.473480 
	C133.439468,412.574951 147.460663,428.559998 165.455673,431.814148 
	C186.773010,435.669037 204.322372,426.834808 211.698700,408.535645 
	C213.638580,403.723206 212.309784,399.312073 208.349915,397.418823 
	C204.061829,395.368652 199.245880,396.948761 197.228470,401.850922 
	C192.425247,413.522369 183.523468,417.220520 171.635117,416.351807 
	C158.813187,415.414856 149.229965,405.811401 148.935684,393.007629 
	C148.820938,388.015259 148.876221,383.018188 148.904022,378.023529 
	C148.987091,363.094208 157.781570,353.713013 173.569641,352.641266 
M337.988770,396.446960 
	C330.949524,378.833496 324.054596,361.159485 316.719147,343.670258 
	C315.587494,340.972168 312.779999,338.185181 310.098450,337.192200 
	C308.130951,336.463593 303.746735,337.902557 302.858521,339.623779 
	C301.472229,342.310120 301.023102,346.483093 302.103455,349.282684 
	C311.867249,374.583923 322.069397,399.715790 332.091827,424.917725 
	C333.649750,428.835266 335.528534,432.236969 340.400085,432.306091 
	C345.516510,432.378723 347.454041,428.893005 349.093140,424.767883 
	C358.923920,400.027130 368.868011,375.331421 378.727081,350.601868 
	C379.458557,348.767090 380.161987,346.807831 380.289520,344.867737 
	C380.616821,339.887299 376.734741,336.366455 371.749969,336.771759 
	C367.640839,337.105835 365.765961,339.864868 364.400055,343.308350 
	C359.246796,356.299957 354.065033,369.280273 348.865265,382.253326 
	C346.242950,388.796021 343.559113,395.314056 340.618958,402.541656 
	C339.569214,400.183716 338.896851,398.673462 337.988770,396.446960 
z"/>
<path fill="#B0BDC8" opacity="1.000000" stroke="none" 
	d="
M424.935913,144.643341 
	C407.027832,145.009140 389.194611,144.776505 371.368927,145.044006 
	C355.010559,145.289490 344.444031,134.152145 344.795502,118.835945 
	C345.384003,93.187202 344.976715,67.515617 345.016754,41.379585 
	C351.662781,40.609173 353.664856,46.462582 356.624420,50.330830 
	C374.716949,73.978661 392.486725,97.874275 410.268066,121.758797 
	C415.176971,128.352585 419.777924,135.176636 424.457275,141.938553 
	C424.879944,142.549301 424.839478,143.480545 424.935913,144.643341 
z"/>
<path fill="#198144" opacity="1.000000" stroke="none" 
	d="
M97.203583,296.370789 
	C89.204613,296.857941 81.086311,297.194305 72.992981,296.882477 
	C60.442287,296.398895 52.208401,288.907959 49.001625,275.318848 
	C47.503250,264.982025 53.374889,253.001175 63.647053,250.183899 
	C70.022285,248.435394 76.930084,248.536697 83.616493,248.050491 
	C87.406593,247.774872 91.232353,247.989548 95.508064,247.955048 
	C96.311470,249.628540 96.928650,251.328140 96.942207,253.032562 
	C97.055992,267.331024 97.059044,281.630371 97.203583,296.370789 
z"/>
<path fill="#22B45D" opacity="1.000000" stroke="none" 
	d="
M226.000000,184.873154 
	C267.156403,184.873154 307.812836,184.872360 348.469238,184.876205 
	C350.134857,184.876358 351.816559,184.780762 353.462891,184.971054 
	C357.459442,185.433014 359.808655,187.826782 360.337372,191.733139 
	C360.868744,195.659042 359.173676,198.651138 355.447937,200.026398 
	C353.637726,200.694565 351.542511,200.803360 349.576080,200.804611 
	C290.257751,200.842392 230.939377,200.837311 171.621002,200.821884 
	C170.131134,200.821503 168.582062,200.855347 167.162613,200.483643 
	C162.905518,199.368820 160.591507,196.534103 160.988129,192.078873 
	C161.382874,187.644653 164.059036,185.097702 168.516235,184.942154 
	C173.841919,184.756302 179.178482,184.875916 184.510330,184.874451 
	C198.173553,184.870712 211.836777,184.873215 226.000000,184.873154 
z"/>
<path fill="#23B45E" opacity="1.000000" stroke="none" 
	d="
M166.253677,248.159439 
	C161.760376,246.192642 160.126587,242.893646 161.178009,238.689331 
	C162.253098,234.390503 165.507095,232.791061 169.868484,232.793915 
	C230.474472,232.833420 291.080505,232.807693 351.686523,232.843613 
	C356.952301,232.846741 360.327728,235.873978 360.525330,240.355606 
	C360.729675,244.989105 357.216949,248.423492 351.898163,248.765320 
	C351.068909,248.818604 350.233643,248.780579 349.401154,248.780579 
	C290.293640,248.780853 231.186127,248.785126 172.078629,248.759827 
	C170.266495,248.759048 168.454483,248.450638 166.253677,248.159439 
z"/>
<path fill="#22B45D" opacity="1.000000" stroke="none" 
	d="
M276.596069,137.953964 
	C280.251892,140.638519 281.538635,143.846222 279.946320,147.778122 
	C278.358185,151.699677 275.067078,152.901123 271.075317,152.898483 
	C237.436188,152.876312 203.797028,152.912262 170.157990,152.856720 
	C164.262039,152.846985 160.837082,149.642075 160.923767,144.673798 
	C161.007263,139.888611 164.294601,136.912140 169.976944,136.904022 
	C203.782532,136.855759 237.588226,136.868439 271.393799,136.918808 
	C273.008331,136.921219 274.621979,137.474350 276.596069,137.953964 
z"/>
<path fill="#D5DEE1" opacity="1.000000" stroke="none" 
	d="
M237.732178,398.298584 
	C238.951920,401.444031 240.425888,404.302521 240.698212,407.271240 
	C241.280746,413.622162 243.598938,416.232758 250.056946,416.346100 
	C255.052658,416.433807 260.051849,416.420319 265.048157,416.353058 
	C270.884430,416.274506 273.531555,414.305542 274.500031,409.504913 
	C275.679108,403.660400 273.721741,399.657166 268.370209,397.439880 
	C258.540802,393.367218 248.478668,389.802094 238.860672,385.286102 
	C224.718643,378.645966 220.057907,359.569519 229.100616,346.815063 
	C233.486038,340.629578 239.510986,337.000031 247.201965,336.792816 
	C254.192368,336.604462 261.203278,336.491150 268.184784,336.801758 
	C282.512787,337.439331 293.156433,351.199310 290.560272,365.391510 
	C289.746826,369.838379 286.419159,372.693787 282.278900,372.497620 
	C278.114075,372.300293 275.171417,369.211304 274.786774,364.633057 
	C273.869171,353.710876 272.699005,352.638824 261.674683,352.631378 
	C258.010040,352.628906 254.344086,352.695068 250.681091,352.617859 
	C246.103149,352.521362 242.335922,353.758118 241.059357,358.676666 
	C239.537933,364.538574 241.610306,369.276306 246.886200,371.532410 
	C253.916672,374.538788 261.089142,377.211914 268.182953,380.071899 
	C271.421143,381.377411 274.750885,382.540527 277.807343,384.196106 
	C287.342407,389.360901 291.103088,397.836700 290.696686,408.299164 
	C290.301788,418.465790 285.941071,426.896973 276.172272,430.210663 
	C264.007690,434.336975 250.967392,434.677734 238.962906,430.070709 
	C226.059128,425.118591 223.530243,413.363129 225.116623,402.545563 
	C225.893646,397.246887 231.498810,395.434387 237.732178,398.298584 
z"/>
<path fill="#D5DEE1" opacity="1.000000" stroke="none" 
	d="
M173.101349,352.659485 
	C157.781570,353.713013 148.987091,363.094208 148.904022,378.023529 
	C148.876221,383.018188 148.820938,388.015259 148.935684,393.007629 
	C149.229965,405.811401 158.813187,415.414856 171.635117,416.351807 
	C183.523468,417.220520 192.425247,413.522369 197.228470,401.850922 
	C199.245880,396.948761 204.061829,395.368652 208.349915,397.418823 
	C212.309784,399.312073 213.638580,403.723206 211.698700,408.535645 
	C204.322372,426.834808 186.773010,435.669037 165.455673,431.814148 
	C147.460663,428.559998 133.439468,412.574951 133.004730,394.473480 
	C132.813080,386.493927 132.345200,378.392853 133.407013,370.536743 
	C136.010971,351.270813 152.037369,337.453339 171.485214,336.750214 
	C191.610489,336.022614 205.057999,343.979431 211.730011,360.562866 
	C213.631805,365.289825 212.240555,369.775238 208.282715,371.676849 
	C204.104782,373.684296 199.254547,372.007416 197.195633,367.118408 
	C192.727325,356.508179 184.851242,351.907776 173.101349,352.659485 
z"/>
<path fill="#D5DEE1" opacity="1.000000" stroke="none" 
	d="
M338.106628,396.805084 
	C338.896851,398.673462 339.569214,400.183716 340.618958,402.541656 
	C343.559113,395.314056 346.242950,388.796021 348.865265,382.253326 
	C354.065033,369.280273 359.246796,356.299957 364.400055,343.308350 
	C365.765961,339.864868 367.640839,337.105835 371.749969,336.771759 
	C376.734741,336.366455 380.616821,339.887299 380.289520,344.867737 
	C380.161987,346.807831 379.458557,348.767090 378.727081,350.601868 
	C368.868011,375.331421 358.923920,400.027130 349.093140,424.767883 
	C347.454041,428.893005 345.516510,432.378723 340.400085,432.306091 
	C335.528534,432.236969 333.649750,428.835266 332.091827,424.917725 
	C322.069397,399.715790 311.867249,374.583923 302.103455,349.282684 
	C301.023102,346.483093 301.472229,342.310120 302.858521,339.623779 
	C303.746735,337.902557 308.130951,336.463593 310.098450,337.192200 
	C312.779999,338.185181 315.587494,340.972168 316.719147,343.670258 
	C324.054596,361.159485 330.949524,378.833496 338.106628,396.805084 
z"/>
</svg>