<svg xmlns="http://www.w3.org/2000/svg" width="1735" height="208" viewBox="0 0 1735 208" version="1.1"><path d="M 245 103.087 L 245 206.174 304.750 205.688 C 342.462 205.382, 366.615 204.792, 370.235 204.090 C 373.389 203.478, 379.464 201.869, 383.735 200.514 C 388.006 199.159, 394.414 196.352, 397.976 194.276 C 401.537 192.199, 407.399 187.575, 411.003 184 C 415.854 179.187, 418.625 175.294, 421.680 169 C 423.949 164.325, 426.721 157.350, 427.840 153.500 C 428.959 149.650, 430.556 143.125, 431.389 139 C 432.222 134.875, 433.429 126.325, 434.071 120 C 434.735 113.459, 434.977 103.326, 434.632 96.500 C 434.299 89.900, 433.359 80.437, 432.544 75.470 C 431.729 70.504, 429.906 62.404, 428.492 57.470 C 427.078 52.537, 424.428 45.350, 422.604 41.500 C 420.780 37.650, 417.240 31.794, 414.738 28.487 C 412.235 25.180, 407.558 20.508, 404.344 18.104 C 401.130 15.700, 394.900 11.998, 390.500 9.877 C 386.100 7.756, 379.001 5.131, 374.725 4.045 C 370.449 2.958, 362.413 1.603, 356.869 1.034 C 351.324 0.466, 323.886 0, 295.894 0 L 245 0 245 103.087 M 642 27.500 L 642 55 629 55 L 616 55 616 71.500 L 616 88 628.890 88 L 641.780 88 642.296 127.750 C 642.636 153.992, 643.228 169.199, 644.035 172.500 C 644.708 175.250, 646.286 179.830, 647.542 182.678 C 648.799 185.526, 651.760 189.954, 654.123 192.518 C 656.486 195.081, 660.567 198.267, 663.191 199.597 C 665.815 200.926, 670.783 202.720, 674.231 203.582 C 678.391 204.622, 687.479 205.337, 701.250 205.708 L 722 206.267 722 189.739 L 722 173.211 710.222 172.855 C 700.023 172.548, 697.790 172.163, 693.564 169.988 C 690.142 168.226, 688.058 166.284, 686.592 163.488 C 684.602 159.695, 684.484 157.752, 684.182 123.750 L 683.864 88 702.932 88 L 722 88 722 71.500 L 722 55 703 55 L 684 55 684 27.500 L 684 0 663 0 L 642 0 642 27.500 M 22.759 2.423 C 20.702 3.157, 17.919 4.478, 16.576 5.358 C 15.232 6.239, 13.040 8.431, 11.705 10.229 C 10.369 12.028, 8.764 15.030, 8.138 16.899 C 7.512 18.769, 7 24.506, 7 29.649 C 7 35.487, 6.607 39, 5.955 39 C 5.380 39, 3.805 40.105, 2.455 41.455 L -0 43.909 0 59.500 L 0 75.091 2.455 77.545 C 3.805 78.895, 5.380 80, 5.955 80 C 6.635 80, 7 85.197, 7 94.886 C 7 109.238, 7.100 109.963, 9.793 115.119 C 11.460 118.310, 14.182 121.579, 16.543 123.226 C 18.720 124.744, 22.924 126.439, 25.886 126.993 C 28.849 127.547, 38.637 128, 47.636 128 C 62.675 128, 64 128.145, 64 129.785 C 64 131.070, 62.146 132.259, 57.377 134.035 C 53.734 135.391, 50.536 137.063, 50.270 137.750 C 50.004 138.437, 48.934 139, 47.893 139 C 46.693 139, 46 139.703, 46 140.921 C 46 142.245, 45.061 143.047, 42.976 143.505 C 41.313 143.871, 38.552 145.348, 36.840 146.788 C 35.128 148.228, 33.114 150.876, 32.364 152.671 C 31.614 154.467, 31 157.539, 31 159.498 C 31 162.318, 30.270 163.702, 27.500 166.134 L 24 169.207 24 176.917 C 24 184.058, 24.207 184.824, 26.805 187.313 C 29.153 189.563, 30.504 190, 35.105 190 C 38.127 190, 41.140 189.460, 41.800 188.800 C 42.460 188.140, 43 185.890, 43 183.800 C 43 180.413, 43.272 180, 45.500 180 C 47.922 180, 48 179.787, 48 173.200 C 48 169.244, 47.498 165.898, 46.800 165.200 C 46.140 164.540, 44.790 164, 43.800 164 C 42.534 164, 42 163.238, 42 161.434 C 42 160.023, 42.466 157.998, 43.035 156.934 C 43.605 155.870, 44.505 155, 45.035 155 C 45.566 155, 46 156.125, 46 157.500 C 46 159.500, 46.500 160, 48.500 160 L 51 160 51 168.813 C 51 177.300, 51.111 177.732, 54 180.500 C 56.425 182.824, 57 184.200, 57 187.687 C 57 191.635, 56.786 192, 54.468 192 C 53.075 192, 50.279 192.692, 48.254 193.538 C 46.230 194.384, 43.769 195.804, 42.787 196.693 C 41.539 197.822, 41 199.773, 41 203.155 L 41 208 65 208 L 89 208 89 199 L 89 190 91.500 190 L 94 190 94 199 L 94 208 118 208 L 142 208 142 203.014 C 142 198.320, 141.770 197.876, 138.072 195.429 C 135.911 193.999, 132.311 192.583, 130.072 192.283 L 126 191.737 126 187.555 C 126 184.215, 126.603 182.796, 129 180.500 C 131.889 177.732, 132 177.300, 132 168.813 L 132 160 134.500 160 C 136.500 160, 137 159.500, 137 157.500 C 137 156.125, 137.461 155, 138.025 155 C 138.588 155, 139.488 156.154, 140.025 157.565 C 140.561 158.976, 141 161.001, 141 162.065 C 141 163.262, 140.313 164, 139.200 164 C 138.210 164, 136.860 164.540, 136.200 165.200 C 135.502 165.898, 135 169.244, 135 173.200 C 135 179.333, 135.196 180, 137 180 C 138.601 180, 139 180.667, 139 183.345 C 139 185.316, 139.751 187.370, 140.829 188.345 C 142.052 189.452, 144.434 190, 148.024 190 C 152.485 190, 153.864 189.547, 156.195 187.313 C 158.793 184.824, 159 184.058, 159 176.917 L 159 169.207 155.500 166.134 C 152.727 163.700, 152 162.319, 152 159.491 C 152 157.527, 151.110 154.176, 150.023 152.044 C 148.935 149.913, 146.770 147.260, 145.212 146.151 C 143.653 145.041, 141.168 143.829, 139.689 143.458 C 137.956 143.023, 137 142.111, 137 140.892 C 137 139.563, 136.288 139, 134.607 139 C 133.291 139, 131.975 138.378, 131.683 137.618 C 131.392 136.857, 128.194 135.174, 124.576 133.876 C 119.861 132.185, 118 131.020, 118 129.759 C 118 128.150, 119.441 128, 134.951 128 C 144.274 128, 154.193 127.509, 156.994 126.908 C 159.830 126.300, 163.916 124.417, 166.217 122.658 C 168.489 120.921, 171.394 117.517, 172.674 115.093 C 174.805 111.055, 175.003 109.420, 175.039 95.593 L 175.077 80.500 178.289 78.479 L 181.500 76.459 181.500 59.500 L 181.500 42.541 178.289 40.521 L 175.077 38.500 175.017 28.500 C 174.971 21.020, 174.492 17.478, 173.114 14.444 C 172.101 12.213, 169.414 8.798, 167.143 6.855 C 164.873 4.911, 161.272 2.799, 159.142 2.161 C 156.369 1.330, 136.969 1.012, 90.884 1.044 C 39.810 1.079, 25.727 1.364, 22.759 2.423 M 27.500 10.911 C 25.850 11.319, 23.506 12.187, 22.291 12.840 C 21.076 13.493, 18.826 15.673, 17.291 17.684 L 14.500 21.342 14.201 60.921 C 14.037 82.689, 14.167 101.949, 14.491 103.721 C 14.815 105.492, 16.281 108.368, 17.748 110.113 C 19.216 111.857, 22.236 114.111, 24.459 115.120 C 28.241 116.838, 32.539 116.957, 91.434 116.978 L 154.369 117 158.698 114.904 C 161.705 113.448, 163.864 111.386, 165.764 108.154 L 168.500 103.500 168.500 64.500 C 168.500 43.050, 168.163 24.297, 167.750 22.827 C 167.338 21.357, 165.822 18.753, 164.381 17.041 C 162.941 15.329, 160.353 13.157, 158.631 12.214 C 155.778 10.652, 149.948 10.485, 93 10.334 C 58.625 10.243, 29.150 10.503, 27.500 10.911 M 289 103 L 289 169 312.250 168.994 C 327.726 168.990, 338.844 168.488, 345.500 167.493 C 352.293 166.478, 357.493 165.022, 361.714 162.954 C 365.132 161.280, 369.242 158.317, 370.847 156.369 C 372.452 154.422, 375.143 150.004, 376.827 146.550 C 378.510 143.097, 380.788 136.723, 381.888 132.386 C 382.988 128.049, 384.410 119.595, 385.048 113.601 C 385.919 105.423, 385.927 100.007, 385.079 91.912 C 384.458 85.977, 383.092 77.771, 382.045 73.675 C 380.997 69.580, 378.522 63.016, 376.545 59.089 C 374.567 55.162, 371.179 50.179, 369.016 48.016 C 366.853 45.853, 363.354 43.201, 361.242 42.123 C 359.129 41.045, 353.954 39.452, 349.742 38.582 C 343.883 37.371, 335.851 37, 315.542 37 L 289 37 289 103 M 459 71.450 L 459 87.901 501.779 88.200 L 544.558 88.500 549.529 91.054 C 552.982 92.828, 555.187 94.848, 556.751 97.671 C 557.990 99.905, 559.288 104.460, 559.636 107.793 L 560.270 113.853 521.385 114.225 C 484.567 114.578, 482.154 114.714, 476 116.787 C 472.425 117.991, 467.562 120.526, 465.194 122.421 C 462.826 124.316, 459.503 127.584, 457.811 129.683 C 456.118 131.782, 453.732 135.750, 452.509 138.500 C 451.286 141.250, 449.713 145.916, 449.015 148.868 C 448.224 152.210, 447.922 157.929, 448.215 164.021 C 448.629 172.621, 449.117 174.713, 452.236 181.283 C 454.189 185.394, 457.385 190.528, 459.340 192.691 C 461.294 194.854, 465.093 197.822, 467.783 199.285 C 470.473 200.749, 475.559 202.627, 479.087 203.459 C 484.421 204.716, 495.313 204.973, 543.834 204.985 L 602.167 205 601.733 152.250 C 601.354 106.085, 601.084 98.751, 599.570 93.500 C 598.619 90.200, 596.449 84.657, 594.749 81.182 C 593.049 77.706, 589.595 72.665, 587.073 69.979 C 583.948 66.651, 580.059 63.973, 574.867 61.574 C 570.378 59.500, 563.649 57.426, 558.492 56.527 C 551.509 55.309, 540.558 55, 504.369 55 L 459 55 459 71.450 M 744 71.440 L 744 88 783.951 88 C 808.668 88, 825.813 88.410, 828.914 89.075 C 831.671 89.666, 835.382 91.130, 837.159 92.328 C 838.937 93.527, 841.257 95.988, 842.315 97.799 C 843.419 99.690, 844.458 103.839, 844.756 107.546 L 845.274 114 810.095 114 C 781.928 114, 773.391 114.315, 767.267 115.580 C 763.060 116.449, 757.558 118.204, 755.039 119.480 C 752.521 120.756, 748.370 124.036, 745.814 126.767 C 743.259 129.499, 740.039 133.964, 738.658 136.689 C 737.277 139.413, 735.391 144.536, 734.466 148.071 C 733.248 152.724, 732.915 156.986, 733.259 163.500 C 733.606 170.059, 734.435 174.208, 736.316 178.796 C 737.736 182.259, 740.503 187.279, 742.465 189.952 C 744.427 192.625, 748.163 196.162, 750.766 197.812 C 753.370 199.462, 757.750 201.641, 760.500 202.656 C 765.121 204.360, 770.106 204.522, 826.306 204.787 L 887.112 205.074 886.777 151.787 L 886.442 98.500 884.107 91.500 C 882.823 87.650, 880.661 82.303, 879.302 79.617 C 877.943 76.932, 874.838 72.602, 872.400 69.997 C 869.902 67.326, 865.226 63.909, 861.681 62.164 C 858.223 60.462, 852.493 58.299, 848.947 57.358 C 843.387 55.882, 835.723 55.594, 793.250 55.263 L 744 54.880 744 71.440 M 497.198 148.673 C 495.382 149.568, 493.245 151.560, 492.448 153.100 C 491.652 154.641, 491 157.469, 491 159.385 C 491 161.302, 491.447 164.045, 491.993 165.480 C 492.611 167.108, 494.588 168.819, 497.243 170.024 C 501.136 171.791, 504.004 171.958, 530.750 171.978 L 560 172 560 159.500 L 560 147 530.250 147.023 C 504.822 147.042, 500.020 147.282, 497.198 148.673 M 781.912 149.280 C 780.052 150.534, 777.941 152.672, 777.223 154.030 C 776.483 155.430, 776.100 158.358, 776.340 160.791 C 776.573 163.150, 777.604 166.025, 778.632 167.179 C 779.659 168.332, 781.948 169.889, 783.718 170.638 C 786.185 171.682, 793.711 172, 815.968 172 L 845 172 845 159.500 L 845 147 815.148 147 L 785.296 147 781.912 149.280" stroke="none" fill="#0c0c0c" fill-rule="evenodd"/><path d="M 917.245 102.750 L 917.500 205.500 939.750 205.769 L 962 206.038 962 167.019 L 962 128 984.750 128.035 C 999.779 128.058, 1010.188 128.549, 1015.419 129.481 C 1019.775 130.257, 1026.149 132.276, 1029.584 133.967 C 1033.019 135.658, 1037.284 138.699, 1039.063 140.725 C 1040.842 142.751, 1043.337 146.679, 1044.607 149.454 C 1045.876 152.229, 1047.603 157.200, 1048.444 160.500 C 1049.285 163.800, 1050.856 173.925, 1051.934 183 C 1053.013 192.075, 1054.413 200.962, 1055.045 202.750 L 1056.196 206 1080.431 206 C 1093.761 206, 1104.888 205.779, 1105.158 205.508 C 1105.429 205.238, 1104.853 201.879, 1103.879 198.044 C 1102.905 194.209, 1101.615 184.417, 1101.011 176.285 C 1100.408 168.153, 1099.233 158.575, 1098.401 155 C 1097.569 151.425, 1095.126 144.841, 1092.973 140.369 C 1090.211 134.633, 1087.606 130.932, 1084.129 127.806 C 1081.419 125.369, 1076.243 122.053, 1072.627 120.437 C 1069.012 118.822, 1066.054 117.275, 1066.054 117 C 1066.054 116.725, 1068.954 115.205, 1072.499 113.621 C 1076.043 112.038, 1081.588 108.350, 1084.820 105.425 C 1088.684 101.928, 1091.956 97.709, 1094.376 93.104 C 1096.400 89.252, 1098.977 82.591, 1100.104 78.300 C 1101.537 72.838, 1102.187 67.053, 1102.272 59 C 1102.360 50.582, 1101.914 45.892, 1100.607 41.500 C 1099.626 38.200, 1097.421 32.859, 1095.709 29.632 C 1093.996 26.404, 1090.039 21.167, 1086.915 17.994 C 1083.193 14.214, 1078.695 10.983, 1073.867 8.623 C 1069.815 6.642, 1063.800 4.351, 1060.500 3.533 C 1057.200 2.715, 1050.450 1.590, 1045.500 1.031 C 1040.412 0.458, 1010.527 0.013, 976.745 0.008 L 916.991 0 917.245 102.750 M 1298 103.125 L 1298 206.249 1342.750 205.675 C 1367.362 205.359, 1389.957 204.640, 1392.960 204.078 C 1395.963 203.515, 1400.842 202.292, 1403.804 201.361 C 1406.765 200.429, 1411.901 198.027, 1415.216 196.022 C 1418.531 194.018, 1423.326 190.633, 1425.872 188.501 C 1428.417 186.369, 1432.442 182.346, 1434.816 179.562 C 1437.190 176.778, 1440.650 171.350, 1442.504 167.500 C 1444.359 163.650, 1446.904 156.675, 1448.160 152 C 1450.104 144.763, 1450.435 141.123, 1450.390 127.500 C 1450.347 114.360, 1449.955 110.106, 1448.197 103.700 C 1447.019 99.409, 1444.382 92.714, 1442.336 88.820 C 1440.290 84.927, 1436.461 79.383, 1433.826 76.499 C 1431.191 73.616, 1426.214 69.421, 1422.767 67.176 C 1419.320 64.932, 1413.455 61.950, 1409.733 60.550 C 1406.011 59.150, 1399.089 57.328, 1394.352 56.502 C 1388.381 55.461, 1378.722 55, 1362.869 55 L 1340 55 1340 27.500 L 1340 0 1319 0 L 1298 0 1298 103.125 M 1655 27.500 L 1655 55 1642 55 L 1629 55 1629 71.500 L 1629 88 1641.914 88 L 1654.827 88 1655.242 128.750 C 1655.605 164.384, 1655.880 170.191, 1657.440 175 C 1658.421 178.025, 1660.313 182.653, 1661.646 185.284 C 1662.978 187.916, 1665.859 191.807, 1668.048 193.931 C 1670.237 196.055, 1673.968 198.705, 1676.340 199.820 C 1678.712 200.935, 1683.318 202.592, 1686.576 203.502 C 1690.836 204.692, 1698.470 205.312, 1713.750 205.711 L 1735 206.264 1735 189.737 L 1735 173.211 1723.250 172.849 C 1713.162 172.539, 1710.795 172.136, 1706.517 169.994 C 1703.351 168.409, 1700.798 166.224, 1699.517 164 C 1697.612 160.695, 1697.483 158.479, 1697.203 124.250 L 1696.907 88 1715.953 88 L 1735 88 1735 71.500 L 1735 55 1716 55 L 1697 55 1697 27.500 L 1697 0 1676 0 L 1655 0 1655 27.500 M 962 64.057 L 962 91.114 998.250 90.807 L 1034.500 90.500 1040.500 87.500 C 1044.192 85.654, 1047.362 83.199, 1048.740 81.118 C 1049.971 79.257, 1051.431 76.107, 1051.984 74.118 C 1052.537 72.128, 1052.987 66.900, 1052.985 62.500 C 1052.981 56.147, 1052.483 53.433, 1050.566 49.314 C 1048.977 45.901, 1046.844 43.269, 1044.326 41.613 C 1042.222 40.230, 1038.475 38.637, 1036 38.074 C 1033.406 37.483, 1016.783 37.039, 996.750 37.024 L 962 37 962 64.057 M 1178.164 54.059 C 1175.229 54.581, 1169.379 56.157, 1165.164 57.562 C 1160.949 58.966, 1154.350 61.962, 1150.500 64.218 C 1146.650 66.475, 1140.266 71.586, 1136.313 75.576 C 1130.645 81.298, 1128.180 84.803, 1124.648 92.166 C 1122.184 97.300, 1119.495 104.650, 1118.671 108.500 C 1117.847 112.350, 1116.879 118.650, 1116.519 122.500 C 1116.159 126.350, 1116.369 134.450, 1116.987 140.500 C 1117.696 147.451, 1119.211 154.793, 1121.101 160.446 C 1122.747 165.366, 1125.730 172.086, 1127.731 175.380 C 1129.732 178.674, 1133.903 183.903, 1137 187 C 1140.097 190.097, 1145.326 194.268, 1148.620 196.269 C 1151.914 198.270, 1158.634 201.247, 1163.554 202.885 C 1168.581 204.558, 1177.061 206.385, 1182.912 207.056 C 1188.989 207.752, 1196.900 207.965, 1201.912 207.566 C 1206.635 207.191, 1213.875 206.197, 1218 205.358 C 1222.125 204.519, 1228.736 202.489, 1232.691 200.847 C 1236.646 199.205, 1243.043 195.643, 1246.906 192.930 C 1250.768 190.217, 1256.210 185.256, 1258.999 181.906 C 1261.787 178.555, 1265.660 172.654, 1267.605 168.792 C 1269.549 164.931, 1271.957 158.560, 1272.954 154.636 C 1273.952 150.711, 1275.074 143.450, 1275.447 138.500 C 1275.820 133.550, 1275.653 125.450, 1275.077 120.500 C 1274.501 115.550, 1273.327 108.800, 1272.469 105.500 C 1271.612 102.200, 1269.478 96.385, 1267.727 92.577 C 1265.977 88.769, 1262.611 83.144, 1260.248 80.077 C 1257.885 77.010, 1253.375 72.338, 1250.226 69.696 C 1247.077 67.054, 1241.350 63.369, 1237.500 61.508 C 1233.650 59.647, 1227.125 57.152, 1223 55.964 C 1217.067 54.254, 1212.158 53.730, 1199.500 53.456 C 1190.700 53.266, 1181.099 53.537, 1178.164 54.059 M 1523.033 54.561 C 1519.476 55.332, 1513.922 56.856, 1510.691 57.947 C 1507.459 59.038, 1501.819 61.596, 1498.157 63.631 C 1494.313 65.767, 1488.302 70.535, 1483.931 74.915 C 1479.769 79.087, 1474.914 85.061, 1473.142 88.190 C 1471.371 91.320, 1468.837 97.069, 1467.512 100.966 C 1466.186 104.862, 1464.565 111.724, 1463.908 116.215 C 1463.185 121.160, 1462.953 128.742, 1463.320 135.440 C 1463.653 141.523, 1464.840 150.100, 1465.957 154.500 C 1467.074 158.900, 1469.868 166.324, 1472.165 170.997 C 1475.412 177.603, 1478.045 181.176, 1483.993 187.054 C 1489.744 192.735, 1493.739 195.648, 1500.073 198.776 C 1504.708 201.066, 1512.550 203.927, 1517.500 205.134 C 1524.718 206.895, 1529.470 207.331, 1541.500 207.335 C 1551.525 207.339, 1558.841 206.818, 1563.558 205.764 C 1567.440 204.897, 1573.990 202.878, 1578.113 201.276 C 1582.237 199.675, 1588.113 196.705, 1591.170 194.675 C 1594.227 192.646, 1599.036 188.678, 1601.857 185.857 C 1604.678 183.036, 1608.607 178.286, 1610.589 175.300 C 1612.571 172.314, 1615.243 167.285, 1616.528 164.125 C 1617.812 160.964, 1619.627 154.606, 1620.561 149.996 C 1621.888 143.445, 1622.144 138.434, 1621.733 127.057 C 1621.307 115.268, 1620.701 110.789, 1618.542 103.500 C 1617.076 98.550, 1614.298 91.670, 1612.368 88.211 C 1610.438 84.752, 1606.156 79.033, 1602.854 75.503 C 1599.551 71.973, 1594.071 67.336, 1590.675 65.199 C 1587.279 63.062, 1581.575 60.153, 1578 58.734 C 1574.425 57.316, 1567.738 55.445, 1563.140 54.578 C 1558.078 53.623, 1549.792 53.031, 1542.140 53.079 C 1535.188 53.123, 1526.590 53.790, 1523.033 54.561 M 57.656 56.133 C 56.642 56.722, 55.180 58.719, 54.406 60.570 C 53.633 62.421, 53 65.765, 53 68 C 53 70.235, 53.637 73.589, 54.415 75.452 C 55.194 77.315, 56.739 79.325, 57.850 79.920 C 58.960 80.514, 60.983 81, 62.345 81 C 63.875 81, 65.797 79.842, 67.371 77.971 C 68.773 76.304, 70.213 73.379, 70.572 71.471 C 70.930 69.562, 70.930 66.438, 70.572 64.529 C 70.213 62.621, 68.773 59.696, 67.371 58.029 C 65.687 56.027, 63.920 55.010, 62.161 55.030 C 60.697 55.047, 58.670 55.543, 57.656 56.133 M 115.308 57.203 C 114.137 58.466, 112.671 61.413, 112.051 63.750 C 111.214 66.905, 111.214 69.095, 112.051 72.250 C 112.671 74.588, 114.117 77.513, 115.264 78.750 C 116.410 79.988, 118.425 81, 119.740 81 C 121.055 81, 122.997 80.537, 124.055 79.970 C 125.114 79.404, 126.659 77.626, 127.490 76.020 C 128.320 74.414, 129 70.669, 129 67.698 C 129 63.732, 128.393 61.392, 126.718 58.898 C 124.961 56.282, 123.630 55.432, 120.937 55.203 C 118.323 54.981, 116.899 55.487, 115.308 57.203 M 1183.500 87.345 C 1181.300 88.070, 1178.150 89.376, 1176.500 90.247 C 1174.850 91.117, 1172.062 93.330, 1170.304 95.165 C 1168.546 96.999, 1165.962 101.008, 1164.562 104.073 C 1163.161 107.138, 1161.562 112.037, 1161.008 114.960 C 1160.453 117.882, 1160 124.914, 1160 130.587 C 1160 136.260, 1160.502 143.286, 1161.115 146.201 C 1161.728 149.115, 1163.325 153.841, 1164.665 156.702 C 1166.030 159.619, 1169.203 163.793, 1171.885 166.202 C 1174.517 168.566, 1178.882 171.287, 1181.585 172.249 C 1184.288 173.211, 1189.209 174.277, 1192.521 174.618 C 1196 174.976, 1201.065 174.716, 1204.521 174.003 C 1207.809 173.324, 1212.075 171.966, 1214 170.986 C 1215.925 170.006, 1219.191 167.558, 1221.258 165.546 C 1223.326 163.534, 1225.915 160.127, 1227.013 157.975 C 1228.110 155.823, 1229.675 151.236, 1230.489 147.781 C 1231.304 144.327, 1231.977 136.724, 1231.985 130.886 C 1231.993 125.049, 1231.547 117.882, 1230.992 114.960 C 1230.438 112.037, 1228.930 107.343, 1227.641 104.528 C 1226.352 101.712, 1223.850 97.760, 1222.080 95.744 C 1220.311 93.729, 1216.312 90.832, 1213.194 89.307 C 1208.321 86.922, 1206.120 86.497, 1197.513 86.279 C 1191.238 86.120, 1186.006 86.518, 1183.500 87.345 M 1531.500 86.938 C 1529.850 87.342, 1526.639 88.628, 1524.366 89.797 C 1522.092 90.966, 1518.812 93.342, 1517.077 95.077 C 1515.342 96.812, 1513.031 99.980, 1511.940 102.117 C 1510.850 104.254, 1509.222 108.815, 1508.322 112.251 C 1507.296 116.172, 1506.660 122.785, 1506.616 130 C 1506.575 136.608, 1507.126 143.840, 1507.910 147 C 1508.660 150.025, 1510.353 154.653, 1511.671 157.284 C 1512.990 159.916, 1515.887 163.834, 1518.110 165.991 C 1520.333 168.148, 1524.705 170.902, 1527.826 172.110 C 1532.081 173.757, 1535.750 174.325, 1542.500 174.379 C 1548.717 174.429, 1553.114 173.896, 1556.720 172.655 C 1559.669 171.640, 1564.060 168.954, 1566.811 166.480 C 1569.912 163.692, 1572.632 159.984, 1574.297 156.272 C 1575.736 153.067, 1577.438 147.081, 1578.080 142.972 C 1578.744 138.717, 1579.010 131.194, 1578.696 125.500 C 1578.393 120, 1577.398 113.025, 1576.484 110 C 1575.571 106.975, 1573.454 102.343, 1571.780 99.708 C 1570.107 97.072, 1566.884 93.640, 1564.619 92.082 C 1562.353 90.524, 1558.347 88.518, 1555.715 87.624 C 1552.684 86.595, 1547.919 86.038, 1542.715 86.102 C 1538.197 86.159, 1533.150 86.535, 1531.500 86.938 M 1340 130.542 L 1340 173.255 1359.750 172.768 C 1377.183 172.338, 1380.194 172.014, 1385.419 170.006 C 1388.674 168.754, 1393.267 165.952, 1395.624 163.778 C 1397.982 161.605, 1400.995 157.953, 1402.319 155.664 C 1403.643 153.374, 1405.573 149.025, 1406.606 146 C 1408.018 141.870, 1408.486 137.636, 1408.487 129 C 1408.487 119.457, 1408.078 116.310, 1406.082 110.508 C 1404.160 104.924, 1402.550 102.392, 1398.088 97.934 C 1394.460 94.310, 1390.746 91.702, 1387.500 90.500 C 1383.382 88.975, 1378.753 88.576, 1361.250 88.238 L 1340 87.828 1340 130.542" stroke="none" fill="#448ccc" fill-rule="evenodd"/></svg>