<svg xmlns="http://www.w3.org/2000/svg" width="2560" height="612" viewBox="0 0 2560 612" version="1.1"><path d="M 1765.750 101.706 C 1766.987 101.944, 1769.013 101.944, 1770.250 101.706 C 1771.487 101.467, 1770.475 101.272, 1768 101.272 C 1765.525 101.272, 1764.513 101.467, 1765.750 101.706 M 2150.487 261 C 2150.487 342.125, 2150.605 375.312, 2150.750 334.750 C 2150.895 294.187, 2150.895 227.812, 2150.750 187.250 C 2150.605 146.687, 2150.487 179.875, 2150.487 261 M 1772.250 128.689 C 1773.213 128.941, 1774.787 128.941, 1775.750 128.689 C 1776.713 128.438, 1775.925 128.232, 1774 128.232 C 1772.075 128.232, 1771.287 128.438, 1772.250 128.689 M 1707.378 181 C 1707.378 187.325, 1707.541 189.912, 1707.739 186.750 C 1707.937 183.588, 1707.937 178.412, 1707.739 175.250 C 1707.541 172.088, 1707.378 174.675, 1707.378 181 M 2105.481 308.500 C 2105.481 363.500, 2105.602 386.147, 2105.750 358.826 C 2105.898 331.506, 2105.898 286.506, 2105.750 258.826 C 2105.602 231.147, 2105.481 253.500, 2105.481 308.500 M 913.336 217 C 913.336 221.125, 913.513 222.813, 913.728 220.750 C 913.944 218.688, 913.944 215.313, 913.728 213.250 C 913.513 211.188, 913.336 212.875, 913.336 217 M 1693.745 219.747 L 1706.990 220.058 1707.250 315.279 L 1707.510 410.500 1707.755 314.750 L 1708 219 1694.250 219.218 L 1680.500 219.437 1693.745 219.747 M 1740.750 219.743 C 1744.737 219.932, 1751.263 219.932, 1755.250 219.743 C 1759.237 219.553, 1755.975 219.397, 1748 219.397 C 1740.025 219.397, 1736.763 219.553, 1740.750 219.743 M 322.500 250 C 325.766 253.300, 328.662 256, 328.937 256 C 329.212 256, 326.766 253.300, 323.500 250 C 320.234 246.700, 317.338 244, 317.063 244 C 316.788 244, 319.234 246.700, 322.500 250 M 471.441 246.555 C 469.611 248.022, 469.643 248.042, 472 246.920 C 473.375 246.265, 474.688 245.565, 474.917 245.365 C 475.146 245.164, 474.894 245, 474.358 245 C 473.821 245, 472.509 245.700, 471.441 246.555 M 358 285.500 C 359.292 286.875, 360.574 288, 360.849 288 C 361.124 288, 360.292 286.875, 359 285.500 C 357.708 284.125, 356.426 283, 356.151 283 C 355.876 283, 356.708 284.125, 358 285.500 M 913.470 349.500 C 913.470 383.600, 913.596 397.695, 913.749 380.822 C 913.903 363.949, 913.903 336.049, 913.750 318.822 C 913.596 301.595, 913.470 315.400, 913.470 349.500 M 1045.470 348 C 1045.470 381.275, 1045.596 394.888, 1045.749 378.250 C 1045.903 361.613, 1045.903 334.388, 1045.749 317.750 C 1045.596 301.113, 1045.470 314.725, 1045.470 348 M 362 289.313 C 362 289.485, 363.462 290.948, 365.250 292.563 L 368.500 295.500 365.563 292.250 C 363.948 290.462, 362.485 289, 362.313 289 C 362.141 289, 362 289.141, 362 289.313 M 2201.924 296.750 L 2199.500 299.500 2202.250 297.076 C 2203.762 295.742, 2205 294.505, 2205 294.326 C 2205 294.147, 2204.853 294, 2204.674 294 C 2204.495 294, 2203.258 295.238, 2201.924 296.750 M 2192.924 305.750 L 2190.500 308.500 2193.250 306.076 C 2194.762 304.742, 2196 303.505, 2196 303.326 C 2196 303.147, 2195.853 303, 2195.674 303 C 2195.495 303, 2194.258 304.238, 2192.924 305.750 M 76.441 318.555 C 74.611 320.022, 74.643 320.042, 77 318.920 C 78.375 318.265, 79.688 317.565, 79.917 317.365 C 80.146 317.164, 79.894 317, 79.358 317 C 78.821 317, 77.509 317.700, 76.441 318.555 M 2208.462 327.250 L 2203.500 332.500 2208.750 327.538 C 2211.637 324.808, 2214 322.446, 2214 322.288 C 2214 322.129, 2213.871 322, 2213.712 322 C 2213.554 322, 2211.192 324.363, 2208.462 327.250 M 363.437 328.250 L 360.500 331.500 363.750 328.563 C 365.538 326.948, 367 325.485, 367 325.313 C 367 325.141, 366.859 325, 366.687 325 C 366.515 325, 365.052 326.462, 363.437 328.250 M 336.491 355.250 L 316.500 375.500 336.750 355.509 C 347.887 344.515, 357 335.402, 357 335.259 C 357 335.117, 356.883 335, 356.741 335 C 356.598 335, 347.485 344.113, 336.491 355.250 M 1266.924 373.750 L 1264.500 376.500 1267.250 374.076 C 1268.763 372.742, 1270 371.505, 1270 371.326 C 1270 371.147, 1269.853 371, 1269.674 371 C 1269.495 371, 1268.258 372.238, 1266.924 373.750 M 297.776 379.733 C 300.128 379.945, 303.728 379.942, 305.776 379.727 C 307.824 379.512, 305.900 379.339, 301.500 379.343 C 297.100 379.346, 295.424 379.522, 297.776 379.733 M 898.269 421.693 C 899.242 421.947, 900.592 421.930, 901.269 421.656 C 901.946 421.382, 901.150 421.175, 899.500 421.195 C 897.850 421.215, 897.296 421.439, 898.269 421.693 M 2451.728 421.722 C 2453.503 421.943, 2456.653 421.946, 2458.728 421.730 C 2460.802 421.513, 2459.350 421.333, 2455.500 421.328 C 2451.650 421.324, 2449.952 421.501, 2451.728 421.722 M 82 469.089 C 79.846 470.851, 79.804 470.986, 81.694 470.062 C 82.901 469.472, 84.165 468.542, 84.503 467.995 C 84.841 467.448, 84.979 467.010, 84.809 467.022 C 84.639 467.034, 83.375 467.965, 82 469.089" stroke="none" fill="#24b4e4" fill-rule="evenodd"/><path d="M 223.358 7.999 C 221.630 8.387, 219.380 9.063, 218.358 9.503 C 217.336 9.942, 215.946 10.418, 215.270 10.560 C 214.593 10.701, 213.324 11.533, 212.449 12.409 C 211.573 13.284, 210.521 14, 210.110 14 C 209.699 14, 207.707 15.474, 205.682 17.275 C 203.657 19.077, 202 21.102, 202 21.775 C 202 22.449, 201.600 23, 201.110 23 C 200.621 23, 199.215 25.137, 197.986 27.750 C 196.757 30.363, 195.671 33.049, 195.572 33.721 C 195.472 34.393, 195.078 35.255, 194.696 35.638 C 194.313 36.020, 194 56.996, 194 82.250 C 194 107.504, 193.662 127.993, 193.250 127.781 C 192.838 127.568, 190.700 126.580, 188.500 125.585 C 186.300 124.590, 184.275 123.467, 184 123.090 C 183.725 122.713, 181.475 121.243, 179 119.823 C 176.525 118.404, 170.900 115.322, 166.500 112.974 C 162.100 110.626, 157.825 108.172, 157 107.522 C 156.175 106.871, 153.250 105.038, 150.500 103.449 C 147.750 101.860, 144.150 99.793, 142.500 98.857 C 140.850 97.920, 137.813 96.395, 135.750 95.468 C 133.688 94.541, 132 93.450, 132 93.043 C 132 92.637, 130.088 91.460, 127.750 90.429 C 125.412 89.399, 123.275 88.268, 123 87.917 C 122.725 87.566, 120.993 86.507, 119.152 85.563 C 117.311 84.620, 114.836 83.556, 113.652 83.200 C 112.468 82.844, 107.450 82.556, 102.500 82.560 C 97.550 82.564, 92.600 82.957, 91.500 83.434 C 90.400 83.912, 88.954 84.417, 88.286 84.557 C 87.618 84.698, 85.749 85.755, 84.132 86.906 C 82.514 88.058, 80.787 89, 80.292 89 C 79.797 89, 78.025 90.463, 76.355 92.250 C 74.684 94.037, 72.315 96.962, 71.091 98.750 C 69.866 100.537, 69.189 102, 69.587 102 C 69.985 102, 69.577 102.810, 68.681 103.800 C 67.786 104.789, 66.706 107.377, 66.283 109.550 C 65.859 111.722, 65.559 116.425, 65.615 120 C 65.671 123.575, 65.999 127.984, 66.344 129.798 C 66.690 131.612, 68.085 134.996, 69.446 137.317 C 70.806 139.638, 73.400 143.065, 75.209 144.932 C 77.019 146.799, 81.835 150.513, 85.911 153.185 C 89.987 155.857, 94.375 158.307, 95.661 158.630 C 96.947 158.953, 98 159.565, 98 159.991 C 98 160.417, 100.534 161.966, 103.631 163.432 C 106.728 164.899, 110.666 167.138, 112.381 168.408 C 114.097 169.679, 117.975 172.019, 121 173.609 C 124.025 175.199, 126.725 176.734, 127 177.020 C 127.275 177.307, 128.850 178.131, 130.500 178.852 C 132.150 179.573, 135.750 181.648, 138.500 183.464 C 141.250 185.279, 146.067 188.151, 149.205 189.846 C 152.343 191.541, 155.943 193.506, 157.205 194.214 C 158.467 194.921, 159.725 195.751, 160 196.059 C 160.275 196.366, 163.650 198.357, 167.500 200.482 C 171.350 202.607, 175.901 205.126, 177.613 206.079 C 179.325 207.032, 181.800 208.417, 183.113 209.156 C 184.426 209.895, 185.725 210.761, 186 211.081 C 186.275 211.400, 189.650 213.381, 193.500 215.481 C 197.350 217.582, 201.509 219.796, 202.742 220.400 C 203.975 221.005, 204.988 221.864, 204.992 222.309 C 204.996 222.754, 205.414 222.862, 205.919 222.550 C 206.425 222.237, 207.466 222.609, 208.232 223.375 C 208.998 224.141, 211.455 225.702, 213.691 226.843 C 215.928 227.983, 219.050 229.223, 220.629 229.598 C 222.208 229.973, 226.975 230.294, 231.221 230.313 C 236.704 230.336, 240.038 229.817, 242.721 228.521 C 244.800 227.517, 247.850 226.002, 249.500 225.153 C 251.150 224.304, 253.850 222.349, 255.500 220.809 C 257.150 219.269, 258.837 218.007, 259.250 218.005 C 259.663 218.002, 260 217.325, 260 216.500 C 260 215.675, 260.469 215, 261.042 215 C 261.615 215, 263.527 211.963, 265.292 208.250 L 268.500 201.500 268.500 118.500 L 268.500 35.500 266.227 31 C 264.977 28.525, 263.333 25.431, 262.572 24.124 C 261.812 22.817, 259.460 20.020, 257.345 17.907 C 255.230 15.794, 252.938 14.051, 252.250 14.033 C 251.563 14.015, 251 13.475, 251 12.833 C 251 12.192, 250.721 11.945, 250.381 12.286 C 250.040 12.626, 249.147 12.290, 248.396 11.538 C 247.644 10.787, 244.660 9.645, 241.765 9 C 238.869 8.356, 234.250 7.709, 231.500 7.562 C 228.750 7.416, 225.086 7.612, 223.358 7.999 M 361.126 8.987 C 357.621 9.974, 354.421 11.319, 354.015 11.976 C 353.609 12.633, 352.980 13.123, 352.619 13.064 C 352.257 13.006, 351.259 13.530, 350.402 14.229 C 349.545 14.928, 347.529 16.674, 345.922 18.108 C 344.315 19.543, 343 21.230, 343 21.858 C 343 22.486, 342.652 23, 342.227 23 C 341.802 23, 340.565 24.663, 339.477 26.696 C 338.390 28.729, 337.612 30.754, 337.750 31.196 C 337.887 31.638, 337.625 32, 337.167 32 C 336.708 32, 336.277 32.563, 336.208 33.250 C 336.139 33.938, 335.628 36.525, 335.072 39 C 334.438 41.825, 334.070 72.425, 334.085 121.225 C 334.098 163.973, 334.478 199.178, 334.929 199.456 C 335.381 199.735, 335.750 201.053, 335.750 202.385 C 335.750 203.717, 337.044 207.373, 338.625 210.510 C 340.206 213.647, 342.877 217.403, 344.560 218.857 C 346.242 220.311, 349.142 222.738, 351.002 224.250 C 352.863 225.762, 354.861 227.003, 355.443 227.006 C 356.024 227.010, 357.850 227.741, 359.500 228.631 C 361.532 229.728, 365.241 230.285, 371 230.357 C 377.128 230.433, 380.965 229.925, 384.750 228.534 C 387.637 227.473, 390 226.217, 390 225.743 C 390 225.270, 390.450 225.160, 391 225.500 C 391.550 225.840, 392 225.641, 392 225.059 C 392 224.477, 392.675 224, 393.500 224 C 394.325 224, 395 223.634, 395 223.187 C 395 222.739, 396.575 221.755, 398.500 221 C 400.425 220.245, 402 219.261, 402 218.813 C 402 218.366, 402.691 218, 403.535 218 C 404.380 218, 406.292 217.223, 407.785 216.273 C 409.278 215.323, 410.725 214.249, 411 213.885 C 411.275 213.522, 413.075 212.475, 415 211.559 C 416.925 210.642, 419.850 209.122, 421.500 208.180 C 423.150 207.238, 427.200 204.929, 430.500 203.050 C 433.800 201.170, 436.725 199.328, 437 198.956 C 437.275 198.583, 439.075 197.489, 441 196.524 C 442.925 195.558, 448.550 192.471, 453.500 189.662 C 458.450 186.854, 462.725 184.265, 463 183.910 C 463.275 183.554, 465.300 182.380, 467.500 181.301 C 469.700 180.221, 473.300 178.310, 475.500 177.055 C 477.700 175.799, 481.525 173.607, 484 172.184 C 486.475 170.761, 488.725 169.312, 489 168.965 C 489.275 168.617, 492.425 166.861, 496 165.061 C 499.575 163.262, 504.435 160.487, 506.800 158.895 C 509.165 157.303, 511.459 156, 511.897 156 C 512.335 156, 513.732 155.100, 515 154 C 516.268 152.900, 517.850 152, 518.514 152 C 519.179 152, 521.733 150.088, 524.190 147.750 C 526.647 145.412, 529.913 141.813, 531.448 139.750 C 532.982 137.688, 533.904 136, 533.496 136 C 533.089 136, 533.202 135.438, 533.747 134.750 C 534.293 134.063, 535.298 131.767, 535.981 129.648 C 536.664 127.530, 537.222 122.975, 537.222 119.527 C 537.222 116.078, 536.659 111.511, 535.972 109.378 C 535.284 107.245, 534.289 104.286, 533.761 102.803 C 533.233 101.319, 530.483 97.668, 527.651 94.688 C 524.818 91.708, 521.150 88.376, 519.500 87.285 C 517.850 86.193, 514.475 84.627, 512 83.806 C 509.525 82.985, 504.575 82.237, 501 82.145 C 497.425 82.053, 492.065 82.636, 489.089 83.441 C 486.112 84.246, 483.307 85.488, 482.854 86.202 C 482.401 86.916, 482.024 87.107, 482.015 86.628 C 482.007 86.148, 481.438 86.217, 480.750 86.782 C 480.063 87.347, 476.800 89.276, 473.500 91.069 C 470.200 92.862, 467.275 94.642, 467 95.025 C 466.725 95.408, 464.925 96.552, 463 97.569 C 461.075 98.585, 459.275 99.439, 459 99.466 C 458.725 99.493, 454.729 101.762, 450.119 104.508 C 445.510 107.254, 441.010 109.961, 440.119 110.523 C 439.229 111.086, 437.375 112.195, 436 112.988 C 434.625 113.781, 433.177 114.445, 432.782 114.465 C 432.388 114.484, 431.263 115.176, 430.282 116.002 C 429.302 116.828, 426.587 118.359, 424.250 119.404 C 421.913 120.449, 420 121.587, 420 121.933 C 420 122.279, 418.762 123.090, 417.250 123.736 C 415.738 124.382, 413.488 125.661, 412.250 126.578 L 410 128.244 409.919 86.372 C 409.874 63.342, 409.672 43.375, 409.470 42 C 409.269 40.625, 408.925 38.600, 408.706 37.500 C 408.488 36.400, 407.958 34.038, 407.530 32.250 C 407.101 30.462, 406.405 29, 405.983 29 C 405.562 29, 404.925 27.838, 404.568 26.417 C 404.212 24.996, 401.526 21.458, 398.600 18.555 C 395.673 15.652, 390.683 12.049, 387.509 10.548 C 383.294 8.553, 379.822 7.734, 374.620 7.505 C 369.936 7.299, 365.320 7.805, 361.126 8.987 M 1756.500 102.259 C 1752.650 102.676, 1746.929 103.878, 1743.787 104.930 C 1740.645 105.983, 1735.555 108.516, 1732.477 110.559 C 1729.398 112.603, 1725.625 115.529, 1724.093 117.061 C 1722.560 118.594, 1719.869 122.088, 1718.112 124.825 C 1716.355 127.563, 1714.059 132.248, 1713.009 135.235 C 1711.959 138.223, 1710.883 141.859, 1710.619 143.317 C 1710.355 144.774, 1709.922 146.317, 1709.658 146.744 C 1709.394 147.171, 1708.902 150.441, 1708.565 154.011 C 1708.228 157.580, 1707.965 167.588, 1707.980 176.250 L 1708.008 192 1694.754 192.082 C 1687.464 192.127, 1680.153 192.383, 1678.507 192.649 C 1676.861 192.916, 1674.052 194.249, 1672.265 195.612 C 1670.478 196.975, 1668.784 199.082, 1668.502 200.295 C 1668.219 201.508, 1667.821 203.625, 1667.617 205 C 1667.412 206.375, 1667.849 208.978, 1668.586 210.785 C 1669.324 212.592, 1670.524 214.617, 1671.252 215.285 C 1671.981 215.953, 1673.627 217.100, 1674.910 217.834 C 1676.604 218.803, 1681.452 219.137, 1692.621 219.053 L 1708 218.937 1708 315.982 L 1708 413.028 1710.250 416.466 C 1711.487 418.356, 1713.534 420.375, 1714.797 420.952 C 1716.060 421.528, 1718.889 422, 1721.082 422 C 1723.276 422, 1726.172 421.278, 1727.518 420.397 C 1728.864 419.515, 1730.897 417.285, 1732.036 415.441 C 1733.176 413.597, 1734.030 411.506, 1733.936 410.795 C 1733.841 410.083, 1733.816 366.619, 1733.882 314.209 L 1734 218.918 1748.750 219.046 C 1756.862 219.116, 1764.842 218.835, 1766.483 218.420 C 1768.123 218.006, 1770.692 216.504, 1772.191 215.083 C 1773.689 213.662, 1775.306 210.700, 1775.783 208.500 C 1776.261 206.300, 1776.274 203.064, 1775.812 201.309 C 1775.334 199.489, 1773.595 197.136, 1771.769 195.835 C 1770.006 194.580, 1767.875 193.365, 1767.032 193.134 C 1766.189 192.904, 1758.527 192.518, 1750.004 192.278 C 1741.481 192.038, 1734.396 191.730, 1734.260 191.593 C 1734.123 191.457, 1733.996 184.855, 1733.978 176.922 C 1733.959 168.990, 1734.135 161.600, 1734.369 160.500 C 1734.603 159.400, 1735.341 155.575, 1736.009 152 C 1736.677 148.425, 1738.120 143.575, 1739.214 141.223 C 1740.309 138.870, 1742.623 135.864, 1744.357 134.541 C 1746.090 133.219, 1748.857 131.603, 1750.504 130.950 C 1752.152 130.298, 1755.300 129.571, 1757.500 129.335 C 1759.700 129.100, 1763.750 128.737, 1766.500 128.529 C 1769.250 128.322, 1773.380 128.118, 1775.679 128.076 C 1778.988 128.016, 1780.549 127.324, 1783.179 124.750 C 1785.005 122.963, 1786.692 120.825, 1786.928 120 C 1787.163 119.175, 1787.473 116.578, 1787.617 114.228 C 1787.846 110.481, 1787.413 109.468, 1784.094 105.978 C 1781.203 102.939, 1779.506 101.978, 1776.905 101.905 C 1775.032 101.853, 1771.250 101.740, 1768.500 101.655 C 1765.750 101.570, 1760.350 101.841, 1756.500 102.259 M 1833.637 102.110 C 1832.613 102.724, 1830.864 104.136, 1829.751 105.249 C 1828.638 106.362, 1827.348 108.898, 1826.885 110.886 C 1826.421 112.874, 1826.038 180.974, 1826.034 262.219 C 1826.028 363.300, 1826.359 410.816, 1827.080 412.719 C 1827.659 414.249, 1829.086 416.518, 1830.251 417.761 C 1831.417 419.005, 1834.013 420.465, 1836.022 421.006 C 1838.792 421.752, 1840.785 421.611, 1844.269 420.424 C 1846.944 419.512, 1849.622 417.740, 1850.681 416.179 C 1852.417 413.622, 1852.512 406.555, 1852.763 261.369 L 1853.025 109.238 1850.263 106.286 C 1848.743 104.661, 1846.600 102.885, 1845.500 102.339 C 1844.400 101.792, 1841.700 101.266, 1839.500 101.170 C 1837.300 101.074, 1834.662 101.497, 1833.637 102.110 M 2159 102.126 C 2159 102.672, 2158.550 102.840, 2158 102.500 C 2157.450 102.160, 2157 102.359, 2157 102.941 C 2157 103.523, 2156.433 104, 2155.741 104 C 2155.048 104, 2153.887 104.951, 2153.161 106.113 C 2152.435 107.276, 2151.653 109.188, 2151.422 110.363 C 2151.191 111.538, 2150.999 179.601, 2150.995 261.612 C 2150.988 392.420, 2151.173 411.169, 2152.499 414.343 C 2153.330 416.333, 2155.172 418.722, 2156.591 419.651 C 2158.050 420.608, 2161.228 421.366, 2163.906 421.396 C 2167.492 421.437, 2169.396 420.849, 2171.753 418.975 C 2173.465 417.614, 2175.571 414.803, 2176.433 412.730 C 2177.710 409.658, 2178.009 404.288, 2178.047 383.730 L 2178.094 358.500 2198.320 337.750 C 2209.445 326.337, 2219.211 317.005, 2220.023 317.010 C 2220.836 317.016, 2223.396 319.603, 2225.714 322.760 C 2228.031 325.917, 2231.406 330.174, 2233.214 332.220 C 2235.021 334.266, 2237.175 336.787, 2238 337.822 C 2238.825 338.858, 2241.075 341.629, 2243 343.981 C 2244.925 346.333, 2247.327 349.057, 2248.337 350.034 C 2249.348 351.012, 2251.148 353.152, 2252.337 354.791 C 2253.527 356.430, 2257.182 361.067, 2260.461 365.096 C 2263.739 369.125, 2267.114 373.147, 2267.961 374.034 C 2268.807 374.920, 2270.850 377.325, 2272.500 379.376 C 2274.150 381.428, 2276.963 384.697, 2278.750 386.639 C 2280.537 388.582, 2282.004 390.471, 2282.009 390.836 C 2282.013 391.201, 2283.476 393.085, 2285.259 395.022 C 2287.041 396.960, 2290.068 400.560, 2291.984 403.022 C 2293.900 405.485, 2296.477 408.625, 2297.711 410 C 2298.944 411.375, 2301.678 414.396, 2303.786 416.714 C 2306.801 420.030, 2308.505 421.040, 2311.778 421.451 C 2314.066 421.739, 2317.155 421.511, 2318.643 420.946 C 2320.130 420.380, 2322.374 418.810, 2323.629 417.455 C 2324.884 416.101, 2326.199 413.455, 2326.552 411.575 C 2326.905 409.695, 2326.897 406.807, 2326.535 405.157 C 2326.172 403.508, 2324.779 400.974, 2323.438 399.527 C 2322.097 398.081, 2321 396.674, 2321 396.401 C 2321 396.128, 2319.875 394.862, 2318.500 393.588 C 2317.125 392.313, 2316 390.867, 2316 390.373 C 2316 389.879, 2314.875 388.630, 2313.500 387.597 C 2312.125 386.565, 2311 385.112, 2311 384.368 C 2311 383.625, 2310.100 382.455, 2309 381.768 C 2307.900 381.081, 2307 380.156, 2307 379.712 C 2307 379.268, 2305.875 377.862, 2304.500 376.588 C 2303.125 375.313, 2302 373.867, 2302 373.373 C 2302 372.879, 2300.875 371.630, 2299.500 370.597 C 2298.125 369.565, 2297 368.112, 2297 367.368 C 2297 366.625, 2296.100 365.455, 2295 364.768 C 2293.900 364.081, 2293 363.156, 2293 362.712 C 2293 362.268, 2291.875 360.862, 2290.500 359.588 C 2289.125 358.313, 2288 356.867, 2288 356.373 C 2288 355.879, 2286.875 354.630, 2285.500 353.597 C 2284.125 352.565, 2283 351.112, 2283 350.368 C 2283 349.625, 2282.100 348.455, 2281 347.768 C 2279.900 347.081, 2279 346.015, 2279 345.400 C 2279 344.784, 2277.875 343.435, 2276.500 342.403 C 2275.125 341.370, 2274 340.121, 2274 339.627 C 2274 339.133, 2272.875 337.687, 2271.500 336.412 C 2270.125 335.138, 2269 333.628, 2269 333.056 C 2269 332.485, 2268.100 331.455, 2267 330.768 C 2265.900 330.081, 2265 329.015, 2265 328.400 C 2265 327.784, 2263.875 326.435, 2262.500 325.403 C 2261.125 324.370, 2260 323.121, 2260 322.627 C 2260 322.133, 2258.875 320.687, 2257.500 319.412 C 2256.125 318.138, 2255 316.628, 2255 316.056 C 2255 315.485, 2254.100 314.455, 2253 313.768 C 2251.900 313.081, 2251 312.015, 2251 311.400 C 2251 310.784, 2249.875 309.435, 2248.500 308.403 C 2247.125 307.370, 2246 306.121, 2246 305.627 C 2246 305.133, 2244.928 303.735, 2243.617 302.521 C 2242.306 301.306, 2240.971 299.454, 2240.649 298.406 C 2240.251 297.110, 2241.142 295.301, 2243.434 292.750 C 2245.287 290.688, 2247.185 288.987, 2247.652 288.972 C 2248.118 288.956, 2254.986 282.431, 2262.912 274.472 C 2270.839 266.512, 2277.728 260, 2278.221 260 C 2278.715 260, 2278.840 259.550, 2278.500 259 C 2278.160 258.450, 2278.392 258, 2279.015 258 C 2279.637 258, 2286.033 252.150, 2293.227 245 C 2300.421 237.850, 2306.466 232, 2306.659 232 C 2306.853 232, 2310.432 228.738, 2314.613 224.750 C 2318.794 220.763, 2323.342 215.741, 2324.719 213.592 C 2326.742 210.436, 2327.128 208.824, 2326.721 205.218 C 2326.444 202.762, 2325.680 200.420, 2325.023 200.015 C 2324.367 199.609, 2323.980 199.030, 2324.165 198.729 C 2324.349 198.428, 2323.161 197.128, 2321.524 195.841 C 2319.440 194.201, 2317.330 193.527, 2314.482 193.591 C 2312.245 193.641, 2309.084 194.541, 2307.458 195.591 C 2305.831 196.641, 2299.386 202.450, 2293.136 208.500 C 2286.887 214.550, 2275.782 225.350, 2268.460 232.500 C 2261.138 239.650, 2242.900 257.425, 2227.931 272 C 2212.962 286.575, 2197.285 301.893, 2193.092 306.041 C 2188.899 310.188, 2183.676 315.202, 2181.484 317.181 L 2177.500 320.781 2177.741 217.013 C 2177.903 147.165, 2177.642 112.270, 2176.942 110.263 C 2176.370 108.622, 2174.557 105.991, 2172.912 104.416 C 2170.455 102.062, 2168.950 101.515, 2164.461 101.343 C 2161.378 101.226, 2159 101.567, 2159 102.126 M 766.880 195.429 C 766.671 195.624, 762.078 196.053, 756.673 196.381 C 751.269 196.708, 746.416 197.243, 745.890 197.568 C 745.364 197.893, 743.414 198.348, 741.556 198.578 C 739.699 198.808, 734.426 200.416, 729.840 202.150 C 725.253 203.884, 720.306 206.135, 718.846 207.151 C 717.386 208.168, 715.891 209, 715.524 209 C 715.157 209, 714.264 209.563, 713.539 210.250 C 712.815 210.938, 710.943 212.400, 709.380 213.500 C 707.818 214.600, 704.843 217.152, 702.770 219.172 C 700.696 221.191, 699 223.328, 699 223.922 C 699 224.515, 698.558 225, 698.017 225 C 697.476 225, 695.968 227.137, 694.666 229.750 C 693.363 232.363, 691.739 236.750, 691.057 239.500 C 690.375 242.250, 689.614 245.400, 689.366 246.500 C 689.119 247.600, 688.892 252.550, 688.862 257.500 C 688.827 263.289, 689.394 268.284, 690.451 271.500 C 691.355 274.250, 693.045 278.300, 694.207 280.500 C 695.368 282.700, 699.163 287.279, 702.640 290.676 C 706.117 294.073, 711.783 298.314, 715.231 300.101 C 718.679 301.888, 724.040 304.616, 727.144 306.165 C 730.248 307.713, 733.848 309.176, 735.144 309.416 C 736.440 309.655, 737.612 309.941, 737.750 310.051 C 737.888 310.160, 738.337 310.344, 738.750 310.459 C 739.163 310.574, 740.850 311.230, 742.500 311.917 C 744.150 312.604, 746.400 313.295, 747.500 313.451 C 748.600 313.608, 750.252 314.055, 751.172 314.445 C 752.091 314.835, 753.441 315.256, 754.172 315.382 C 754.902 315.507, 757.075 316.097, 759 316.694 C 760.925 317.290, 765.200 318.599, 768.500 319.602 C 771.800 320.605, 774.725 321.480, 775 321.546 C 775.275 321.613, 776.850 322.232, 778.500 322.923 C 780.150 323.613, 783.975 325.127, 787 326.287 C 790.025 327.448, 793.102 328.499, 793.838 328.623 C 794.573 328.747, 796.036 329.628, 797.088 330.579 C 798.139 331.531, 799 332.029, 799 331.685 C 799 331.341, 800.462 332.064, 802.250 333.290 C 804.038 334.516, 806.995 336.636, 808.821 338.001 C 810.648 339.365, 813.093 342.173, 814.256 344.241 C 815.418 346.308, 816.647 348, 816.989 348 C 817.330 348, 817.750 349.913, 817.921 352.250 C 818.093 354.587, 818.313 358.070, 818.411 359.989 C 818.508 361.907, 817.804 365.100, 816.846 367.083 C 815.888 369.066, 814.968 371.321, 814.802 372.094 C 814.636 372.867, 811.926 376.099, 808.780 379.275 C 804.476 383.620, 801.132 385.873, 795.280 388.372 C 791.001 390.200, 785.250 392.228, 782.500 392.880 C 779.750 393.531, 773.900 394.388, 769.500 394.782 C 764.501 395.231, 758.312 395.035, 753 394.260 C 748.325 393.578, 743.150 392.827, 741.500 392.589 C 739.850 392.352, 737.532 391.932, 736.348 391.655 C 735.164 391.379, 732.758 390.409, 731 389.500 C 729.242 388.591, 727.043 387.701, 726.112 387.522 C 725.181 387.342, 722.075 385.813, 719.210 384.124 C 716.344 382.434, 713.993 381.378, 713.985 381.776 C 713.976 382.174, 713.639 381.998, 713.235 381.384 C 712.831 380.771, 710.025 379.117, 707 377.710 C 703.975 376.303, 700.825 375.044, 700 374.913 C 699.175 374.782, 697.296 375.013, 695.824 375.427 C 694.352 375.841, 692.361 377.049, 691.399 378.111 C 690.404 379.211, 689.543 381.971, 689.399 384.523 C 689.233 387.454, 689.664 389.521, 690.644 390.501 C 691.468 391.326, 691.781 392, 691.338 392 C 690.895 392, 692.993 394.250, 696 397 C 699.007 399.750, 701.803 402, 702.214 402 C 702.625 402, 705.332 403.513, 708.231 405.363 C 711.129 407.213, 715.975 409.845, 719 411.212 C 722.025 412.579, 725.850 414.067, 727.500 414.518 C 729.150 414.968, 730.725 415.403, 731 415.484 C 731.275 415.565, 733.901 416.376, 736.836 417.287 C 739.770 418.198, 742.470 418.903, 742.836 418.853 C 743.201 418.804, 743.725 418.851, 744 418.958 C 744.275 419.065, 745.261 419.300, 746.190 419.479 C 747.120 419.659, 749.717 420.062, 751.962 420.376 C 754.206 420.690, 758.620 421.217, 761.771 421.547 C 764.922 421.877, 772 421.674, 777.500 421.096 C 783 420.518, 789.975 419.354, 793 418.510 C 796.025 417.665, 799.325 416.773, 800.333 416.528 C 801.341 416.283, 805.841 414.228, 810.333 411.960 C 814.825 409.692, 820.075 406.642, 822 405.183 C 823.925 403.723, 827.300 400.720, 829.500 398.510 C 831.700 396.300, 834.513 393.252, 835.750 391.738 C 836.987 390.224, 838 388.720, 838 388.397 C 838 388.073, 838.863 386.596, 839.919 385.114 C 840.974 383.632, 842.767 379.659, 843.904 376.286 C 845.040 372.912, 846.231 367.755, 846.551 364.826 C 846.870 361.897, 847.271 359.046, 847.442 358.491 C 847.612 357.936, 847.193 353.419, 846.511 348.453 C 845.711 342.638, 844.273 337.390, 842.472 333.712 C 840.934 330.570, 839.298 328, 838.838 328 C 838.377 328, 838 327.414, 838 326.698 C 838 325.981, 834.880 322.446, 831.067 318.841 C 825.777 313.840, 821.407 310.935, 812.630 306.586 C 806.303 303.451, 800.198 300.815, 799.063 300.730 C 797.929 300.644, 797 300.295, 797 299.954 C 797 299.613, 796.438 299.309, 795.750 299.279 C 795.063 299.248, 791.462 298.052, 787.750 296.620 C 784.038 295.189, 781 294.293, 781 294.631 C 781 294.969, 780.438 294.778, 779.750 294.207 C 779.063 293.637, 778.050 293.078, 777.500 292.965 C 776.950 292.853, 775.504 292.382, 774.286 291.918 C 773.068 291.455, 769.468 290.295, 766.286 289.339 C 763.104 288.384, 760.163 287.523, 759.750 287.426 C 759.337 287.329, 758.775 287.137, 758.500 287 C 758.225 286.863, 757.663 286.655, 757.250 286.539 C 756.837 286.422, 755.825 286.069, 755 285.753 C 754.175 285.437, 751.362 284.590, 748.750 283.871 C 746.138 283.152, 744 282.212, 744 281.782 C 744 281.352, 742.987 280.990, 741.750 280.978 C 740.513 280.966, 738.375 280.076, 737 279 C 735.625 277.924, 734.074 277.034, 733.554 277.022 C 733.033 277.010, 730.783 275.762, 728.554 274.250 C 726.324 272.738, 724.035 271.050, 723.467 270.500 C 722.899 269.950, 721.450 268.099, 720.247 266.387 C 719.043 264.675, 718.346 262.988, 718.696 262.637 C 719.047 262.287, 718.906 262, 718.385 262 C 717.863 262, 717.506 259.413, 717.593 256.250 C 717.679 253.088, 718.287 249.150, 718.945 247.500 C 719.603 245.850, 720.070 244.354, 719.983 244.176 C 719.896 243.998, 722.002 241.253, 724.663 238.075 C 727.323 234.897, 730.748 231.738, 732.272 231.055 C 733.797 230.372, 735.597 229.292, 736.272 228.656 C 736.948 228.020, 739.075 226.880, 741 226.122 C 742.925 225.364, 747.650 223.856, 751.500 222.772 C 756.288 221.423, 761.502 220.809, 768 220.829 C 774.753 220.849, 779.524 221.472, 784.500 222.982 C 788.350 224.150, 793.075 225.870, 795 226.803 C 796.925 227.736, 802.880 231.773, 808.233 235.774 C 813.586 239.774, 819.538 243.975, 821.459 245.108 C 823.924 246.563, 825.821 246.979, 827.903 246.521 C 829.526 246.165, 831.991 244.737, 833.380 243.347 C 835.453 241.274, 835.841 240.063, 835.544 236.589 C 835.336 234.158, 834.052 230.686, 832.526 228.429 C 831.065 226.268, 827.761 222.501, 825.185 220.058 C 822.608 217.615, 817.125 213.453, 813 210.808 C 808.875 208.164, 804.938 206, 804.250 206 C 803.563 206, 803 205.475, 803 204.833 C 803 204.192, 802.712 203.955, 802.360 204.307 C 802.008 204.659, 800.545 204.324, 799.110 203.563 C 797.674 202.802, 794.915 201.491, 792.977 200.650 C 791.039 199.809, 788.114 198.845, 786.477 198.508 C 784.840 198.171, 783.050 197.764, 782.500 197.604 C 781.950 197.444, 780.375 197.046, 779 196.721 C 777.625 196.395, 774.421 195.892, 771.880 195.601 C 769.339 195.311, 767.089 195.234, 766.880 195.429 M 1213.768 195.563 C 1213.621 195.710, 1210.125 196.081, 1206 196.388 C 1201.875 196.695, 1197.825 197.003, 1197 197.073 C 1196.175 197.143, 1193.700 197.681, 1191.500 198.269 C 1189.300 198.856, 1186.964 199.442, 1186.310 199.571 C 1185.655 199.700, 1183.474 200.349, 1181.463 201.012 C 1179.452 201.676, 1176.613 202.842, 1175.153 203.603 C 1173.694 204.365, 1172.050 205.007, 1171.500 205.030 C 1170.950 205.054, 1166.301 207.671, 1161.169 210.846 C 1156.037 214.021, 1147.824 220.375, 1142.919 224.965 C 1138.013 229.556, 1134 233.868, 1134 234.549 C 1134 235.229, 1133.360 236.032, 1132.578 236.332 C 1131.796 236.632, 1129.900 239.042, 1128.365 241.689 C 1126.830 244.335, 1125.220 246.650, 1124.787 246.833 C 1124.354 247.017, 1124 247.772, 1124 248.512 C 1124 249.252, 1123.438 250.469, 1122.750 251.217 C 1122.063 251.965, 1120.938 253.566, 1120.250 254.775 C 1119.563 255.984, 1119 257.616, 1119 258.403 C 1119 259.190, 1118.662 259.983, 1118.250 260.167 C 1117.838 260.350, 1116.487 262.984, 1115.250 266.019 C 1114.013 269.055, 1113 272.099, 1113 272.783 C 1113 273.467, 1112.577 274.809, 1112.059 275.764 C 1111.542 276.719, 1110.417 280.650, 1109.559 284.500 C 1108.701 288.350, 1107.964 292.400, 1107.921 293.500 C 1107.878 294.600, 1107.710 300.450, 1107.547 306.500 C 1107.385 312.550, 1107.605 319.975, 1108.036 323 C 1108.468 326.025, 1109.106 330.037, 1109.454 331.916 C 1109.802 333.795, 1110.311 335.695, 1110.586 336.139 C 1110.860 336.582, 1111.972 340.334, 1113.057 344.475 C 1114.141 348.617, 1116.811 355.539, 1118.989 359.859 C 1121.167 364.179, 1123.631 368.279, 1124.464 368.970 C 1125.297 369.661, 1125.731 370.626, 1125.430 371.113 C 1125.129 371.601, 1125.249 372, 1125.697 372 C 1126.145 372, 1127.103 373.336, 1127.826 374.968 C 1128.548 376.601, 1133.946 382.818, 1139.820 388.784 C 1145.694 394.751, 1153.200 401.454, 1156.500 403.681 C 1159.800 405.908, 1165.650 409.270, 1169.500 411.153 C 1173.350 413.036, 1178.525 415.174, 1181 415.904 C 1183.475 416.634, 1186.625 417.637, 1188 418.133 C 1189.375 418.628, 1191.850 419.230, 1193.500 419.470 C 1195.150 419.710, 1199.002 420.340, 1202.059 420.870 C 1205.117 421.400, 1211.574 421.670, 1216.407 421.471 C 1221.241 421.273, 1227.515 420.816, 1230.348 420.457 C 1233.182 420.098, 1235.865 419.580, 1236.311 419.306 C 1236.758 419.031, 1238.558 418.583, 1240.311 418.309 C 1242.065 418.036, 1244.063 417.349, 1244.750 416.784 C 1245.438 416.218, 1246 416.012, 1246 416.327 C 1246 416.641, 1247.688 416.213, 1249.750 415.376 C 1251.813 414.539, 1254.737 413.327, 1256.250 412.683 C 1257.763 412.039, 1259 411.172, 1259 410.756 C 1259 410.340, 1259.718 410, 1260.597 410 C 1261.475 410, 1265.989 407.526, 1270.628 404.502 C 1275.267 401.478, 1282.804 395.291, 1287.377 390.752 C 1291.950 386.213, 1296.762 380.925, 1298.069 379 C 1299.376 377.075, 1301.230 374.644, 1302.188 373.599 C 1303.147 372.553, 1303.747 371.400, 1303.522 371.036 C 1303.298 370.673, 1304.116 369.209, 1305.341 367.783 C 1306.566 366.357, 1308.632 362.785, 1309.931 359.845 C 1311.230 356.905, 1312.863 353.150, 1313.560 351.500 C 1314.257 349.850, 1316.025 344.083, 1317.488 338.684 C 1318.952 333.286, 1320.422 325.636, 1320.755 321.684 C 1321.089 317.733, 1321.362 311.575, 1321.363 308 C 1321.363 304.425, 1321.036 298.800, 1320.635 295.500 C 1320.234 292.200, 1319.899 288.721, 1319.889 287.770 C 1319.880 286.818, 1319.471 285.791, 1318.980 285.488 C 1318.489 285.184, 1318.311 284.353, 1318.584 283.640 C 1318.858 282.928, 1318.543 281.030, 1317.885 279.422 C 1317.227 277.815, 1316.602 276.050, 1316.496 275.500 C 1316.391 274.950, 1316.203 274.275, 1316.078 274 C 1315.953 273.725, 1315.658 272.460, 1315.423 271.188 C 1315.187 269.917, 1314.011 266.767, 1312.810 264.188 C 1311.608 261.610, 1310.519 258.898, 1310.388 258.162 C 1310.258 257.427, 1309.551 256.077, 1308.817 255.162 C 1308.083 254.248, 1306.640 251.833, 1305.609 249.796 C 1304.578 247.759, 1302.922 245.220, 1301.928 244.153 C 1300.934 243.086, 1300.312 242.021, 1300.546 241.787 C 1300.781 241.553, 1299.456 239.705, 1297.601 237.680 C 1295.747 235.656, 1294.469 234, 1294.760 234 C 1295.052 234, 1291.961 230.738, 1287.891 226.750 C 1283.822 222.762, 1278.919 218.271, 1276.996 216.768 C 1275.073 215.266, 1272.938 214.028, 1272.250 214.018 C 1271.563 214.008, 1271 213.652, 1271 213.227 C 1271 212.802, 1269.313 211.587, 1267.250 210.527 C 1265.188 209.467, 1262.713 207.945, 1261.750 207.145 C 1260.787 206.345, 1260 205.995, 1260 206.368 C 1260 206.741, 1258.987 206.392, 1257.750 205.592 C 1256.513 204.793, 1252.400 202.979, 1248.610 201.561 C 1244.821 200.144, 1240.321 198.762, 1238.610 198.490 C 1236.900 198.218, 1233.025 197.586, 1230 197.086 C 1226.975 196.587, 1222.146 195.979, 1219.268 195.737 C 1216.391 195.495, 1213.916 195.417, 1213.768 195.563 M 1997.873 195.461 C 1997.649 195.684, 1994.324 196.097, 1990.483 196.379 C 1986.642 196.660, 1982.150 197.102, 1980.500 197.361 C 1978.850 197.619, 1976.600 198.081, 1975.500 198.387 C 1974.400 198.693, 1971.475 199.433, 1969 200.031 C 1966.525 200.629, 1960.900 202.734, 1956.500 204.710 C 1952.100 206.685, 1948.275 208.634, 1948 209.041 C 1947.725 209.448, 1945.588 210.776, 1943.250 211.992 C 1940.912 213.207, 1939 214.497, 1939 214.857 C 1939 215.217, 1937.763 216.062, 1936.250 216.735 C 1934.737 217.408, 1930.575 220.789, 1927 224.248 C 1923.425 227.708, 1919.487 231.771, 1918.250 233.277 C 1917.013 234.783, 1916 236.424, 1916 236.924 C 1916 237.424, 1915.662 237.983, 1915.250 238.167 C 1914.838 238.350, 1913.118 240.300, 1911.429 242.500 C 1909.740 244.700, 1907.544 248.075, 1906.549 250 C 1905.554 251.925, 1903.607 255.750, 1902.223 258.500 C 1900.838 261.250, 1899.697 264.063, 1899.686 264.750 C 1899.675 265.438, 1899.217 266, 1898.667 266 C 1898.117 266, 1897.928 266.262, 1898.248 266.582 C 1898.568 266.901, 1898.133 268.814, 1897.282 270.832 C 1896.430 272.849, 1895.154 276.975, 1894.445 280 C 1893.736 283.025, 1892.783 287.525, 1892.328 290 C 1891.873 292.475, 1891.531 300.800, 1891.570 308.500 C 1891.608 316.200, 1891.973 324.075, 1892.381 326 C 1892.788 327.925, 1893.132 330.175, 1893.145 331 C 1893.157 331.825, 1893.414 333.175, 1893.715 334 C 1894.017 334.825, 1894.426 336.744, 1894.625 338.265 C 1894.824 339.785, 1896.369 344.614, 1898.059 348.996 C 1899.749 353.378, 1901.552 357.223, 1902.066 357.541 C 1902.579 357.858, 1903 358.936, 1903 359.937 C 1903 360.937, 1903.670 362.311, 1904.489 362.991 C 1905.308 363.671, 1905.754 364.589, 1905.480 365.033 C 1905.206 365.476, 1905.661 366.518, 1906.491 367.348 C 1907.321 368.178, 1908 369.138, 1908 369.482 C 1908 369.825, 1909.061 371.668, 1910.358 373.577 C 1911.655 375.485, 1914.468 379.097, 1916.608 381.604 C 1918.749 384.110, 1922.802 388.487, 1925.616 391.330 C 1928.430 394.174, 1931.868 397.512, 1933.257 398.750 C 1934.646 399.988, 1936.075 401, 1936.433 401 C 1936.791 401, 1938.050 401.900, 1939.230 403 C 1940.411 404.100, 1941.967 405, 1942.689 405 C 1943.410 405, 1944 405.338, 1944 405.752 C 1944 406.165, 1945.912 407.478, 1948.250 408.670 C 1950.588 409.862, 1954.300 411.658, 1956.500 412.661 C 1958.700 413.664, 1960.838 414.544, 1961.250 414.617 C 1961.662 414.690, 1962.225 414.863, 1962.500 415 C 1962.775 415.137, 1963.338 415.344, 1963.750 415.459 C 1964.162 415.574, 1965.633 416.141, 1967.017 416.720 C 1968.401 417.299, 1973.351 418.577, 1978.017 419.559 C 1982.803 420.567, 1990.858 421.359, 1996.500 421.376 C 2002 421.393, 2008.750 421.070, 2011.500 420.657 C 2014.250 420.245, 2017.400 419.738, 2018.500 419.532 C 2019.600 419.326, 2021.586 418.909, 2022.914 418.605 C 2024.242 418.300, 2027.508 417.328, 2030.170 416.443 C 2032.833 415.559, 2037.147 413.707, 2039.756 412.327 C 2042.365 410.947, 2046.300 408.847, 2048.500 407.659 C 2050.700 406.472, 2052.831 405.050, 2053.235 404.500 C 2053.639 403.950, 2053.976 403.833, 2053.985 404.240 C 2053.993 404.647, 2054.950 404.197, 2056.112 403.240 C 2057.273 402.283, 2058.832 400.921, 2059.576 400.214 C 2060.320 399.507, 2061.057 399.037, 2061.214 399.169 C 2061.371 399.301, 2062.613 398.529, 2063.973 397.454 C 2065.333 396.379, 2069.270 392.605, 2072.723 389.067 L 2079 382.634 2079.081 395.567 C 2079.126 402.680, 2079.252 409.716, 2079.362 411.202 C 2079.472 412.689, 2080.673 415.094, 2082.031 416.547 C 2083.389 418.001, 2085.625 419.739, 2087 420.410 C 2088.375 421.080, 2090.512 421.544, 2091.750 421.440 C 2092.988 421.335, 2094.878 421.194, 2095.952 421.125 C 2097.025 421.056, 2099.425 419.433, 2101.285 417.518 C 2103.145 415.603, 2104.706 413.241, 2104.755 412.268 C 2104.803 411.296, 2104.882 364.227, 2104.931 307.670 C 2105.013 211.236, 2104.909 204.654, 2103.259 201.852 C 2102.292 200.208, 2099.995 198.148, 2098.156 197.273 C 2096.317 196.399, 2093.258 195.741, 2091.359 195.813 C 2089.460 195.884, 2086.608 196.709, 2085.022 197.646 C 2083.328 198.647, 2081.491 201.044, 2080.569 203.458 C 2079.428 206.445, 2079 211.196, 2079 220.859 L 2079 234.151 2073 228 C 2069.700 224.617, 2067 222.093, 2067 222.391 C 2067 222.689, 2065.440 221.373, 2063.533 219.467 C 2061.627 217.560, 2059.687 216, 2059.222 216 C 2058.757 216, 2057.462 215.148, 2056.344 214.106 C 2055.227 213.065, 2052.896 211.481, 2051.166 210.586 C 2049.436 209.691, 2047.729 209.007, 2047.372 209.065 C 2047.016 209.123, 2046.430 208.696, 2046.071 208.115 C 2045.712 207.534, 2042.112 205.696, 2038.072 204.030 C 2034.031 202.363, 2029.977 201, 2029.062 201 C 2028.148 201, 2026.860 200.460, 2026.200 199.800 C 2025.540 199.140, 2025 198.970, 2025 199.422 C 2025 199.875, 2024.314 199.676, 2023.476 198.980 C 2022.638 198.284, 2021.714 197.953, 2021.423 198.244 C 2021.132 198.535, 2019.006 198.218, 2016.697 197.541 C 2014.389 196.864, 2009.586 196.204, 2006.025 196.075 C 2002.464 195.946, 1999.264 195.663, 1998.915 195.447 C 1998.565 195.231, 1998.096 195.237, 1997.873 195.461 M 2449.928 195.382 C 2449.692 195.604, 2446.350 196.072, 2442.500 196.422 C 2438.650 196.771, 2433.709 197.287, 2431.520 197.567 C 2429.331 197.847, 2423.706 199.240, 2419.020 200.662 C 2414.334 202.084, 2407.800 204.630, 2404.500 206.320 C 2401.200 208.010, 2398.225 209.792, 2397.888 210.282 C 2397.552 210.771, 2397.004 211.020, 2396.671 210.835 C 2396.337 210.651, 2395.263 211.177, 2394.282 212.004 C 2393.302 212.831, 2390.129 215.021, 2387.231 216.870 C 2384.333 218.720, 2381.071 221.366, 2379.981 222.751 C 2378.891 224.136, 2378 224.931, 2378 224.517 C 2378 224.103, 2375.945 225.954, 2373.434 228.632 C 2370.923 231.309, 2368.121 234.625, 2367.208 236 C 2366.295 237.375, 2364.975 238.860, 2364.274 239.300 C 2363.573 239.740, 2363 240.697, 2363 241.427 C 2363 242.158, 2362.334 243.308, 2361.521 243.983 C 2360.707 244.658, 2359.406 246.401, 2358.629 247.855 C 2357.853 249.310, 2355.763 253.200, 2353.985 256.500 C 2352.207 259.800, 2349.442 266.100, 2347.839 270.500 C 2346.237 274.900, 2344.676 280.750, 2344.371 283.500 C 2344.066 286.250, 2343.487 288.950, 2343.085 289.500 C 2342.683 290.050, 2342.200 292.075, 2342.012 294 C 2341.823 295.925, 2341.660 302.675, 2341.648 309 C 2341.636 315.325, 2341.985 323.200, 2342.425 326.500 C 2342.865 329.800, 2343.602 333.218, 2344.065 334.095 C 2344.527 334.973, 2345.138 336.998, 2345.424 338.595 C 2345.709 340.193, 2346.504 343.413, 2347.190 345.750 C 2347.876 348.087, 2348.815 350, 2349.277 350 C 2349.740 350, 2349.841 350.448, 2349.502 350.996 C 2349.164 351.544, 2350.589 355.256, 2352.670 359.246 C 2354.750 363.236, 2356.801 366.650, 2357.226 366.833 C 2357.652 367.017, 2358 367.804, 2358 368.583 C 2358 369.363, 2358.477 370, 2359.059 370 C 2359.641 370, 2359.840 370.450, 2359.500 371 C 2359.160 371.550, 2359.359 372, 2359.941 372 C 2360.523 372, 2361 372.486, 2361 373.080 C 2361 373.674, 2362.688 376.202, 2364.750 378.697 C 2366.813 381.192, 2371.490 386.219, 2375.144 389.867 C 2378.798 393.515, 2383.477 397.850, 2385.541 399.500 C 2387.604 401.150, 2389.902 402.645, 2390.646 402.823 C 2391.391 403.001, 2392 403.533, 2392 404.006 C 2392 404.479, 2392.992 405.180, 2394.203 405.565 C 2395.415 405.949, 2397.026 406.884, 2397.784 407.641 C 2398.541 408.399, 2399.575 408.763, 2400.081 408.450 C 2400.586 408.138, 2401 408.385, 2401 409 C 2401 409.615, 2401.419 409.859, 2401.931 409.543 C 2402.443 409.226, 2403.137 409.412, 2403.472 409.955 C 2403.808 410.499, 2405.985 411.785, 2408.311 412.813 C 2410.636 413.842, 2415.455 415.627, 2419.019 416.780 C 2422.584 417.934, 2427.719 419.154, 2430.431 419.491 C 2433.142 419.829, 2435.724 420.330, 2436.169 420.604 C 2436.613 420.879, 2445.194 421.128, 2455.238 421.158 C 2465.858 421.189, 2475.383 420.733, 2478 420.067 C 2480.475 419.438, 2482.950 418.804, 2483.500 418.659 C 2484.050 418.515, 2488.220 417.143, 2492.766 415.611 C 2497.312 414.079, 2501.684 412.173, 2502.480 411.377 C 2503.277 410.580, 2504.057 409.974, 2504.214 410.029 C 2504.371 410.084, 2505.400 409.795, 2506.500 409.387 C 2507.600 408.980, 2508.725 408.336, 2509 407.957 C 2509.275 407.579, 2511.324 406.344, 2513.552 405.215 C 2515.781 404.085, 2520.056 400.989, 2523.052 398.333 C 2526.049 395.678, 2531.799 390.242, 2535.831 386.253 C 2539.863 382.264, 2542.865 379, 2542.504 379 C 2542.142 379, 2543.231 377.615, 2544.923 375.923 C 2546.615 374.231, 2548 372.243, 2548 371.506 C 2548 370.770, 2548.352 370.017, 2548.783 369.833 C 2549.214 369.650, 2550.564 367.787, 2551.783 365.693 C 2553.020 363.569, 2553.984 360.253, 2553.965 358.193 C 2553.945 356.162, 2553.373 353.499, 2552.693 352.275 C 2552.013 351.051, 2550.017 348.988, 2548.258 347.690 C 2546.321 346.262, 2543.493 345.269, 2541.091 345.175 C 2538.909 345.089, 2536.533 345.603, 2535.812 346.316 C 2535.090 347.029, 2533.783 347.883, 2532.908 348.214 C 2532.032 348.545, 2530.583 350.358, 2529.689 352.242 C 2528.795 354.126, 2525.524 358.780, 2522.421 362.584 C 2519.317 366.388, 2515.140 370.949, 2513.139 372.719 C 2511.137 374.490, 2508.600 376.743, 2507.500 377.726 C 2506.400 378.709, 2502.137 381.535, 2498.026 384.006 C 2493.915 386.478, 2490.315 388.432, 2490.026 388.349 C 2489.737 388.265, 2488.600 388.699, 2487.500 389.313 C 2486.400 389.927, 2485.275 390.468, 2485 390.516 C 2484.725 390.563, 2482.025 391.322, 2479 392.202 C 2475.975 393.081, 2471.250 394.119, 2468.500 394.507 C 2465.750 394.896, 2458.695 395.178, 2452.822 395.135 C 2446.950 395.092, 2438.850 394.335, 2434.822 393.453 C 2430.795 392.570, 2426.150 391.275, 2424.500 390.574 C 2422.850 389.873, 2419.925 388.708, 2418 387.985 C 2416.075 387.262, 2411.880 385.057, 2408.677 383.085 C 2405.474 381.113, 2399.514 376.402, 2395.433 372.615 C 2391.291 368.773, 2385.357 361.770, 2382.006 356.767 C 2378.703 351.837, 2376 347.279, 2376 346.637 C 2376 345.995, 2375.110 343.810, 2374.022 341.780 C 2372.934 339.751, 2371.790 336.645, 2371.479 334.879 C 2371.168 333.113, 2370.616 331.188, 2370.254 330.602 C 2369.891 330.015, 2369.526 328.852, 2369.442 328.018 C 2369.358 327.183, 2368.947 323.913, 2368.529 320.750 L 2367.770 315 2460.002 315 L 2552.235 315 2556.157 311.078 L 2560.079 307.156 2559.623 300.328 C 2559.372 296.573, 2558.963 292.150, 2558.713 290.500 C 2558.464 288.850, 2557.772 285.700, 2557.175 283.500 C 2556.579 281.300, 2555.865 278.375, 2555.589 277 C 2555.313 275.625, 2555.029 274.050, 2554.959 273.500 C 2554.888 272.950, 2554.470 272.050, 2554.030 271.500 C 2553.591 270.950, 2552.918 269.038, 2552.536 267.250 C 2552.154 265.462, 2551.463 264, 2551 264 C 2550.537 264, 2549.849 262.591, 2549.471 260.869 C 2549.093 259.147, 2547.184 254.984, 2545.229 251.619 C 2543.275 248.253, 2540.736 244.325, 2539.588 242.889 C 2538.439 241.453, 2536.825 239.203, 2536 237.889 C 2535.175 236.575, 2530.675 231.759, 2526 227.187 C 2521.325 222.615, 2516.825 218.318, 2516 217.639 C 2515.175 216.960, 2513.150 215.531, 2511.500 214.464 C 2509.850 213.397, 2507.600 211.992, 2506.500 211.342 C 2505.400 210.691, 2501.800 208.790, 2498.500 207.116 C 2495.200 205.443, 2490.148 203.168, 2487.273 202.060 C 2484.399 200.953, 2481.024 199.835, 2479.773 199.575 C 2478.523 199.315, 2476.375 198.830, 2475 198.497 C 2473.625 198.165, 2471.375 197.706, 2470 197.479 C 2468.625 197.252, 2464.350 196.809, 2460.500 196.495 C 2456.650 196.180, 2452.792 195.710, 2451.928 195.451 C 2451.063 195.191, 2450.163 195.160, 2449.928 195.382 M 893.872 198.336 C 892.129 199.526, 889.878 202.053, 888.870 203.950 C 887.128 207.229, 887.035 212.439, 887.009 309.222 C 886.983 408.521, 887.031 411.140, 888.948 414.899 C 890.030 417.019, 891.721 419.105, 892.707 419.535 C 893.693 419.966, 894.837 420.246, 895.250 420.159 C 895.663 420.071, 896 420.337, 896.001 420.750 C 896.001 421.162, 897.688 421.455, 899.751 421.399 C 901.813 421.343, 904.400 420.938, 905.500 420.497 C 906.600 420.056, 908.339 418.977, 909.365 418.098 C 910.390 417.219, 911.612 415.500, 912.080 414.277 C 912.547 413.055, 912.979 382.529, 913.039 346.443 C 913.126 294.062, 913.421 280.058, 914.501 276.996 C 915.246 274.887, 916.061 271.850, 916.313 270.249 C 916.566 268.648, 917.207 266.474, 917.738 265.419 C 918.269 264.363, 919.783 261.263, 921.102 258.530 C 922.421 255.796, 923.950 252.932, 924.500 252.164 C 925.050 251.396, 928.650 247.558, 932.500 243.634 C 936.350 239.710, 940.625 235.608, 942 234.518 C 943.375 233.428, 944.837 232.640, 945.250 232.768 C 945.663 232.896, 946 232.629, 946 232.176 C 946 231.722, 948.587 230.199, 951.750 228.790 C 954.913 227.382, 958.361 225.938, 959.414 225.583 C 960.466 225.228, 962.941 224.698, 964.914 224.406 C 966.886 224.114, 969.850 223.543, 971.500 223.138 C 973.150 222.732, 977.200 222.483, 980.500 222.585 C 983.800 222.686, 988.640 223.063, 991.255 223.422 C 993.870 223.781, 998.032 224.942, 1000.505 226.002 C 1002.977 227.062, 1005 227.714, 1005 227.452 C 1005 227.190, 1006.688 228.026, 1008.750 229.311 C 1010.813 230.595, 1013.175 231.968, 1014 232.362 C 1014.825 232.756, 1016.421 233.623, 1017.547 234.289 C 1018.673 234.955, 1022.273 238.200, 1025.547 241.500 C 1028.821 244.800, 1032.961 249.649, 1034.747 252.275 C 1036.533 254.901, 1038.713 258.726, 1039.592 260.775 C 1040.471 262.824, 1042.117 267.425, 1043.250 271 C 1045.228 277.242, 1045.323 280.119, 1045.639 343.500 C 1045.820 379.800, 1046.208 410.828, 1046.500 412.452 C 1046.792 414.075, 1048.002 416.438, 1049.190 417.702 C 1050.377 418.966, 1052.144 420, 1053.115 420 C 1054.087 420, 1055.161 420.452, 1055.502 421.004 C 1055.844 421.556, 1057.907 421.784, 1060.088 421.510 C 1062.268 421.236, 1065.096 420.328, 1066.372 419.492 C 1067.648 418.656, 1069.324 416.741, 1070.096 415.236 C 1071.254 412.979, 1071.531 400.941, 1071.676 346.500 C 1071.784 305.788, 1071.462 278.010, 1070.835 274 C 1070.275 270.425, 1068.943 264.800, 1067.874 261.500 C 1066.806 258.200, 1065.534 254.600, 1065.049 253.500 C 1064.564 252.400, 1063.570 250.037, 1062.840 248.250 C 1062.109 246.463, 1061.172 245, 1060.756 245 C 1060.340 245, 1060 244.325, 1060 243.500 C 1060 242.675, 1059.550 242, 1059 242 C 1058.450 242, 1058 241.484, 1058 240.854 C 1058 240.223, 1056.468 237.398, 1054.595 234.577 C 1052.722 231.755, 1047.602 226.019, 1043.217 221.829 C 1038.832 217.640, 1034.289 213.909, 1033.122 213.539 C 1031.955 213.168, 1031 212.446, 1031 211.933 C 1031 211.420, 1030.325 211, 1029.500 211 C 1028.675 211, 1028 210.550, 1028 210 C 1028 209.450, 1027.507 209, 1026.904 209 C 1026.302 209, 1024.578 208.123, 1023.073 207.052 C 1021.568 205.980, 1017.976 204.173, 1015.092 203.036 C 1012.207 201.899, 1006.394 200.036, 1002.173 198.896 C 997.455 197.622, 990.264 196.665, 983.500 196.411 C 976.224 196.138, 969.792 196.511, 964.500 197.512 C 960.100 198.344, 956.050 199.160, 955.500 199.324 C 954.950 199.488, 953.375 199.960, 952 200.374 C 950.625 200.787, 948.600 201.498, 947.500 201.952 C 946.400 202.407, 941.659 204.663, 936.964 206.965 C 932.270 209.267, 926.870 212.462, 924.964 214.065 C 923.059 215.667, 920.825 217.507, 920 218.153 C 919.175 218.799, 917.231 220.492, 915.680 221.914 L 912.859 224.500 913.003 217 C 913.082 212.875, 913.113 208.375, 913.072 207 C 913.032 205.625, 911.454 202.765, 909.566 200.644 C 906.676 197.396, 905.416 196.739, 901.588 196.479 C 898.208 196.251, 896.228 196.727, 893.872 198.336 M 1347.079 198.247 C 1345.345 199.345, 1343.267 201.516, 1342.463 203.072 C 1341.658 204.628, 1341.020 207.386, 1341.044 209.200 C 1341.068 211.015, 1341.778 214.300, 1342.621 216.500 C 1343.464 218.700, 1345.502 224.100, 1347.151 228.500 C 1348.799 232.900, 1351.208 239.425, 1352.504 243 C 1353.800 246.575, 1356.068 252.875, 1357.545 257 C 1359.022 261.125, 1360.741 264.831, 1361.365 265.235 C 1361.989 265.639, 1362.147 265.976, 1361.715 265.985 C 1361.283 265.993, 1361.432 266.939, 1362.047 268.088 C 1362.661 269.236, 1363.363 271.273, 1363.607 272.614 C 1363.850 273.956, 1365.201 277.629, 1366.610 280.777 C 1368.019 283.924, 1369.369 287.524, 1369.610 288.777 C 1369.851 290.029, 1371.123 293.481, 1372.435 296.449 C 1373.748 299.417, 1374.562 302.105, 1374.244 302.423 C 1373.926 302.740, 1374.218 303, 1374.892 303 C 1375.566 303, 1375.900 303.353, 1375.633 303.785 C 1375.366 304.217, 1376.413 307.569, 1377.959 311.234 C 1379.505 314.898, 1380.522 318.145, 1380.218 318.448 C 1379.915 318.752, 1380.267 319, 1381 319 C 1381.733 319, 1382.058 319.275, 1381.722 319.611 C 1381.386 319.947, 1382.046 322.760, 1383.189 325.861 C 1384.331 328.962, 1385.711 332.063, 1386.255 332.750 C 1386.800 333.438, 1386.988 334, 1386.673 334 C 1386.359 334, 1386.823 335.688, 1387.704 337.750 C 1388.585 339.813, 1390.575 344.992, 1392.127 349.259 C 1393.678 353.526, 1396.343 360.726, 1398.048 365.259 C 1399.752 369.792, 1402.173 376.431, 1403.426 380.014 C 1404.679 383.597, 1406.458 387.984, 1407.378 389.764 C 1408.298 391.544, 1408.818 393, 1408.534 393 C 1408.249 393, 1408.769 394.913, 1409.689 397.250 C 1410.609 399.587, 1411.843 401.831, 1412.431 402.235 C 1413.019 402.639, 1413.147 402.976, 1412.715 402.985 C 1412.283 402.993, 1412.427 403.929, 1413.035 405.065 C 1413.643 406.201, 1414.327 408.113, 1414.557 409.315 C 1414.786 410.517, 1415.457 412.625, 1416.047 414 C 1416.638 415.375, 1418.782 417.601, 1420.811 418.947 C 1423.134 420.488, 1425.981 421.408, 1428.500 421.433 C 1431.203 421.460, 1433.539 420.697, 1435.703 419.083 C 1437.464 417.769, 1439.681 414.850, 1440.629 412.597 C 1441.578 410.344, 1442.418 408.275, 1442.496 408 C 1442.574 407.725, 1443.845 404.857, 1445.319 401.626 C 1446.794 398.395, 1448 395.330, 1448 394.815 C 1448 394.299, 1449.836 389.978, 1452.079 385.211 C 1454.323 380.445, 1456.219 375.747, 1456.292 374.772 C 1456.366 373.798, 1456.780 373, 1457.213 373 C 1457.646 373, 1457.931 372.663, 1457.846 372.250 C 1457.761 371.837, 1458.489 369.700, 1459.464 367.500 C 1460.440 365.300, 1461.666 362.375, 1462.189 361 C 1462.712 359.625, 1463.127 358.397, 1463.111 358.270 C 1463.095 358.144, 1464.355 355.444, 1465.911 352.270 C 1467.467 349.097, 1469.307 344.700, 1470 342.500 C 1470.694 340.300, 1471.707 337.938, 1472.253 337.250 C 1472.798 336.562, 1472.852 335.993, 1472.372 335.985 C 1471.893 335.976, 1471.978 335.639, 1472.562 335.235 C 1473.145 334.831, 1474.796 331.575, 1476.230 328 C 1477.664 324.425, 1479.173 320.600, 1479.582 319.500 C 1479.992 318.400, 1480.407 317.275, 1480.504 317 C 1480.601 316.725, 1481.481 314.700, 1482.459 312.500 C 1483.437 310.300, 1484.709 307.375, 1485.285 306 C 1485.861 304.625, 1486.410 303.275, 1486.505 303 C 1486.600 302.725, 1487.407 300.925, 1488.300 299 C 1489.192 297.075, 1489.996 295.837, 1490.086 296.250 C 1490.176 296.663, 1490.344 297.337, 1490.459 297.750 C 1490.574 298.163, 1491.202 299.850, 1491.854 301.500 C 1492.507 303.150, 1493.462 305.400, 1493.976 306.500 C 1494.490 307.600, 1495.677 310.300, 1496.615 312.500 C 1497.552 314.700, 1498.398 316.725, 1498.493 317 C 1498.589 317.275, 1499.202 318.850, 1499.854 320.500 C 1500.507 322.150, 1501.462 324.400, 1501.976 325.500 C 1502.490 326.600, 1503.677 329.300, 1504.615 331.500 C 1505.552 333.700, 1506.398 335.725, 1506.493 336 C 1506.589 336.275, 1507.202 337.850, 1507.854 339.500 C 1508.507 341.150, 1509.462 343.400, 1509.976 344.500 C 1510.490 345.600, 1511.677 348.300, 1512.615 350.500 C 1513.552 352.700, 1514.398 354.725, 1514.493 355 C 1514.589 355.275, 1515.202 356.850, 1515.854 358.500 C 1516.507 360.150, 1517.462 362.400, 1517.976 363.500 C 1518.490 364.600, 1519.677 367.300, 1520.615 369.500 C 1521.552 371.700, 1522.398 373.725, 1522.493 374 C 1522.589 374.275, 1523.192 375.767, 1523.834 377.315 C 1524.475 378.863, 1525 380.461, 1525 380.865 C 1525 381.269, 1525.534 382.134, 1526.186 382.786 C 1526.839 383.439, 1527.525 384.972, 1527.712 386.193 C 1527.898 387.414, 1528.528 388.708, 1529.111 389.068 C 1529.694 389.429, 1530.132 390.011, 1530.085 390.362 C 1530.038 390.713, 1530.056 391.225, 1530.125 391.500 C 1530.194 391.775, 1530.344 392.337, 1530.459 392.750 C 1530.574 393.163, 1531.267 394.850, 1532 396.500 C 1532.733 398.150, 1533.377 399.725, 1533.432 400 C 1533.486 400.275, 1533.961 401.175, 1534.486 402 C 1535.012 402.825, 1535.579 404.380, 1535.746 405.457 C 1535.914 406.533, 1536.528 407.708, 1537.111 408.068 C 1537.694 408.429, 1538.132 409.011, 1538.085 409.362 C 1538.038 409.713, 1538.034 410.113, 1538.077 410.250 C 1538.119 410.387, 1538.311 411.338, 1538.505 412.363 C 1538.698 413.388, 1540.515 415.745, 1542.542 417.602 C 1544.569 419.459, 1546.626 420.731, 1547.114 420.430 C 1547.601 420.129, 1548 420.350, 1548 420.921 C 1548 421.528, 1549.636 421.803, 1551.934 421.582 C 1554.161 421.367, 1557.360 420.065, 1559.306 418.580 C 1561.325 417.040, 1563.455 414.098, 1564.464 411.454 C 1565.410 408.977, 1566.277 406.399, 1566.390 405.725 C 1566.503 405.051, 1567.084 403.600, 1567.679 402.500 C 1568.275 401.400, 1569.908 397.350, 1571.308 393.500 C 1572.708 389.650, 1575.171 382.900, 1576.781 378.500 C 1578.391 374.100, 1579.803 370.050, 1579.918 369.500 C 1580.033 368.950, 1581.012 366.500, 1582.094 364.056 C 1583.175 361.611, 1584.347 358.461, 1584.698 357.056 C 1585.050 355.650, 1586.381 352.137, 1587.656 349.250 C 1588.931 346.363, 1589.777 344, 1589.536 344 C 1589.295 344, 1589.945 342.107, 1590.981 339.794 C 1592.016 337.481, 1592.643 335.231, 1592.373 334.794 C 1592.103 334.357, 1592.434 334, 1593.108 334 C 1593.782 334, 1594.053 333.719, 1593.710 333.376 C 1593.366 333.033, 1593.948 331.063, 1595.001 328.997 C 1596.055 326.932, 1597.120 324.175, 1597.369 322.871 C 1597.618 321.567, 1598.731 318.495, 1599.843 316.044 C 1600.954 313.594, 1601.643 311.231, 1601.373 310.794 C 1601.103 310.357, 1601.434 310, 1602.108 310 C 1602.782 310, 1603.072 309.738, 1602.752 309.419 C 1602.432 309.099, 1603.002 306.981, 1604.017 304.713 C 1605.033 302.444, 1605.643 300.231, 1605.373 299.794 C 1605.103 299.357, 1605.284 299, 1605.774 299 C 1606.265 299, 1606.697 298.438, 1606.734 297.750 C 1606.771 297.063, 1607.811 294.025, 1609.046 291 C 1610.280 287.975, 1612.161 283.306, 1613.226 280.625 C 1614.291 277.944, 1615.315 275.019, 1615.500 274.125 C 1615.686 273.231, 1616.602 270.700, 1617.537 268.500 C 1618.471 266.300, 1619.112 264.500, 1618.960 264.500 C 1618.809 264.500, 1619.659 262.299, 1620.849 259.609 C 1622.038 256.920, 1623.197 253.697, 1623.424 252.447 C 1623.650 251.198, 1624.367 249.183, 1625.016 247.971 C 1625.665 246.758, 1627.517 242.106, 1629.133 237.633 C 1630.748 233.160, 1632.067 229.393, 1632.065 229.263 C 1632.062 229.132, 1632.959 226.928, 1634.059 224.363 C 1635.158 221.799, 1636.536 217.856, 1637.121 215.600 C 1637.706 213.345, 1638.295 210.375, 1638.431 209 C 1638.566 207.625, 1637.942 205.184, 1637.044 203.575 C 1636.147 201.966, 1634.307 199.843, 1632.956 198.857 C 1631.605 197.870, 1628.940 196.800, 1627.033 196.479 C 1625.021 196.140, 1622.502 196.434, 1621.033 197.178 C 1619.640 197.884, 1617.263 199.703, 1615.750 201.222 C 1614.237 202.740, 1613 204.436, 1613 204.991 C 1613 205.546, 1612.928 206.338, 1612.840 206.750 C 1612.752 207.162, 1611.383 210.647, 1609.797 214.492 C 1608.211 218.338, 1606.798 222.163, 1606.658 222.992 C 1606.517 223.822, 1605.786 225.625, 1605.032 227 C 1604.279 228.375, 1603.681 229.725, 1603.704 230 C 1603.727 230.275, 1603.537 231.175, 1603.282 232 C 1603.027 232.825, 1602.451 234.400, 1602.002 235.500 C 1601.553 236.600, 1600.472 239.414, 1599.600 241.753 C 1598.728 244.092, 1597.941 246.342, 1597.851 246.753 C 1597.762 247.164, 1597.084 248.948, 1596.345 250.718 C 1595.605 252.488, 1595 254.535, 1595 255.268 C 1595 256.001, 1594.460 257.140, 1593.800 257.800 C 1593.140 258.460, 1592.889 259, 1593.243 259 C 1593.597 259, 1592.575 262.182, 1590.971 266.070 C 1589.367 269.959, 1587.930 273.897, 1587.778 274.820 C 1587.625 275.744, 1587.174 276.745, 1586.775 277.043 C 1586.377 277.342, 1585.882 278.467, 1585.675 279.543 C 1585.469 280.620, 1584.967 282.400, 1584.560 283.500 C 1584.152 284.600, 1583.451 286.400, 1583.002 287.500 C 1582.553 288.600, 1581.473 291.413, 1580.601 293.750 C 1579.729 296.087, 1579.248 298, 1579.531 298 C 1579.814 298, 1579.325 299.101, 1578.443 300.447 C 1577.561 301.793, 1576.863 303.139, 1576.892 303.437 C 1576.921 303.735, 1576.733 304.659, 1576.473 305.490 C 1576.213 306.320, 1575.701 307.788, 1575.336 308.750 C 1574.971 309.712, 1574.623 310.725, 1574.563 311 C 1574.503 311.275, 1572.734 315.908, 1570.632 321.295 C 1568.530 326.682, 1566.696 331.632, 1566.556 332.295 C 1566.416 332.958, 1565.968 334.400, 1565.560 335.500 C 1565.152 336.600, 1564.451 338.400, 1564.002 339.500 C 1563.553 340.600, 1562.473 343.413, 1561.601 345.750 C 1560.729 348.087, 1560.248 350, 1560.531 350 C 1560.814 350, 1560.248 351.218, 1559.273 352.706 C 1558.298 354.194, 1557.600 355.540, 1557.723 355.696 C 1557.845 355.851, 1557.692 356.771, 1557.382 357.740 C 1557.072 358.708, 1556.441 360.400, 1555.979 361.500 C 1555.518 362.600, 1554.292 365.887, 1553.255 368.803 L 1551.370 374.107 1550.006 371.303 C 1549.256 369.762, 1548.572 368.275, 1548.485 368 C 1548.398 367.725, 1547.996 366.600, 1547.591 365.500 C 1547.185 364.400, 1546.129 361.925, 1545.243 360 C 1544.357 358.075, 1543.565 356.275, 1543.482 356 C 1543.400 355.725, 1542.818 354.261, 1542.190 352.747 C 1541.561 351.233, 1540.136 347.995, 1539.024 345.552 C 1537.911 343.109, 1537 340.873, 1537 340.584 C 1537 340.296, 1535.875 337.600, 1534.500 334.594 C 1533.125 331.588, 1532 328.869, 1532 328.553 C 1532 328.237, 1531.063 325.846, 1529.919 323.239 C 1528.774 320.633, 1527.118 316.925, 1526.239 315 C 1525.359 313.075, 1524.721 311.163, 1524.820 310.750 C 1524.919 310.337, 1524.550 310, 1524 310 C 1523.450 310, 1523 309.078, 1523 307.950 C 1523 306.823, 1522.231 304.461, 1521.292 302.700 C 1520.352 300.940, 1519.526 299.275, 1519.456 299 C 1519.385 298.725, 1518.996 297.600, 1518.591 296.500 C 1518.185 295.400, 1517.129 292.925, 1516.243 291 C 1515.357 289.075, 1514.565 287.275, 1514.482 287 C 1514.400 286.725, 1513.818 285.261, 1513.190 283.747 C 1512.561 282.233, 1511.136 278.995, 1510.024 276.552 C 1508.911 274.109, 1508 271.855, 1508 271.544 C 1508 271.233, 1507.129 269.071, 1506.064 266.739 C 1504.999 264.408, 1503.475 260.879, 1502.677 258.899 C 1501.879 256.918, 1499.825 254.300, 1498.113 253.081 C 1496.401 251.861, 1495 251.175, 1495 251.554 C 1495 251.934, 1494.438 251.795, 1493.750 251.246 C 1493.063 250.696, 1491.150 250.341, 1489.500 250.457 C 1487.850 250.572, 1485.077 251.408, 1483.338 252.314 C 1481.599 253.219, 1479.237 255.155, 1478.088 256.615 C 1476.940 258.075, 1476 260.082, 1476 261.076 C 1476 262.069, 1475.543 263.165, 1474.984 263.510 C 1474.425 263.856, 1474.226 264.557, 1474.543 265.069 C 1474.859 265.581, 1474.641 266, 1474.059 266 C 1473.477 266, 1473 266.421, 1473 266.935 C 1473 267.449, 1472.475 269.137, 1471.834 270.685 C 1471.192 272.233, 1470.623 273.725, 1470.568 274 C 1470.514 274.275, 1470.112 275.063, 1469.676 275.750 C 1469.239 276.438, 1469.246 277.007, 1469.691 277.015 C 1470.136 277.024, 1469.949 277.381, 1469.275 277.809 C 1468.602 278.237, 1467.898 279.467, 1467.711 280.543 C 1467.524 281.620, 1465.937 285.519, 1464.185 289.208 C 1462.433 292.898, 1461 296.349, 1461 296.877 C 1461 297.406, 1460.348 299.112, 1459.551 300.669 C 1458.753 302.226, 1456.775 306.489, 1455.154 310.142 C 1453.533 313.794, 1451.899 318.182, 1451.524 319.892 C 1451.148 321.601, 1450.499 323, 1450.081 323 C 1449.662 323, 1448.717 324.913, 1447.980 327.250 C 1447.243 329.587, 1446.275 331.991, 1445.829 332.592 C 1445.382 333.193, 1445.313 333.980, 1445.675 334.342 C 1446.037 334.704, 1445.808 335, 1445.167 335 C 1444.525 335, 1444 335.421, 1444 335.935 C 1444 336.449, 1443.475 338.137, 1442.834 339.685 C 1442.192 341.233, 1441.623 342.725, 1441.568 343 C 1441.514 343.275, 1441.112 344.063, 1440.676 344.750 C 1440.239 345.438, 1440.246 346.007, 1440.691 346.015 C 1441.136 346.024, 1440.949 346.381, 1440.275 346.809 C 1439.602 347.237, 1438.900 348.467, 1438.716 349.543 C 1438.532 350.620, 1437.170 354.018, 1435.691 357.096 C 1434.211 360.175, 1432.986 363.100, 1432.969 363.596 C 1432.952 364.093, 1431.874 366.671, 1430.574 369.324 C 1429.274 371.978, 1427.991 373.778, 1427.723 373.324 C 1427.455 372.871, 1426.922 371.038, 1426.538 369.250 C 1426.155 367.462, 1425.352 366, 1424.754 366 C 1424.156 366, 1423.951 365.716, 1424.298 365.369 C 1424.645 365.021, 1424.459 363.857, 1423.883 362.781 C 1423.307 361.705, 1422.629 359.684, 1422.376 358.291 C 1422.124 356.898, 1421.026 354.012, 1419.938 351.879 C 1418.850 349.745, 1418.178 348, 1418.444 348 C 1418.711 348, 1418.007 345.863, 1416.880 343.250 C 1415.753 340.637, 1414.139 336.475, 1413.293 334 C 1412.448 331.525, 1411.291 328.375, 1410.724 327 C 1410.157 325.625, 1409.564 324.050, 1409.407 323.500 C 1409.251 322.950, 1407.947 319.350, 1406.511 315.500 C 1405.075 311.650, 1403.491 307.219, 1402.992 305.653 C 1402.493 304.087, 1401.560 302.175, 1400.920 301.403 C 1400.279 300.631, 1400.051 300, 1400.413 300 C 1400.774 300, 1400.568 299.061, 1399.953 297.912 C 1399.339 296.764, 1398.628 294.678, 1398.374 293.278 C 1398.120 291.877, 1397.217 289.387, 1396.368 287.745 C 1395.519 286.102, 1394.640 283.748, 1394.416 282.512 C 1394.192 281.277, 1393.247 278.519, 1392.315 276.383 C 1391.384 274.247, 1390.575 272.275, 1390.518 272 C 1390.461 271.725, 1389.813 269.700, 1389.077 267.500 C 1388.341 265.300, 1387.352 263.009, 1386.878 262.408 C 1386.405 261.807, 1386.313 261.020, 1386.675 260.658 C 1387.037 260.296, 1386.904 260, 1386.379 260 C 1385.855 260, 1385.359 259.117, 1385.278 258.038 C 1385.197 256.959, 1384.317 254.372, 1383.323 252.288 C 1382.329 250.205, 1381.507 248.275, 1381.496 248 C 1381.486 247.725, 1380.962 246.150, 1380.332 244.500 C 1379.703 242.850, 1378.847 240.600, 1378.430 239.500 C 1378.014 238.400, 1377.615 237.275, 1377.545 237 C 1377.475 236.725, 1376.595 234.025, 1375.589 231 C 1374.583 227.975, 1373.206 224.150, 1372.529 222.500 C 1371.853 220.850, 1370.309 216.800, 1369.100 213.500 C 1367.892 210.200, 1366.003 205.665, 1364.903 203.421 C 1363.507 200.574, 1361.786 198.864, 1359.202 197.757 C 1357.166 196.884, 1354.315 196.189, 1352.866 196.210 C 1351.418 196.232, 1348.814 197.149, 1347.079 198.247 M 558.788 198.545 C 558.490 198.844, 556.958 199.321, 555.385 199.607 C 553.812 199.892, 549.369 201.841, 545.512 203.938 C 541.656 206.035, 535.638 209.494, 532.140 211.625 C 528.641 213.756, 525.041 215.961, 524.140 216.523 C 523.238 217.086, 521.375 218.195, 520 218.988 C 518.625 219.781, 517.177 220.445, 516.782 220.465 C 516.388 220.484, 515.145 221.287, 514.021 222.250 C 512.897 223.213, 511.635 224, 511.217 224 C 510.799 224, 506.416 226.472, 501.478 229.494 C 496.540 232.516, 492.195 234.991, 491.822 234.994 C 491.449 234.997, 488.299 236.680, 484.822 238.734 C 481.345 240.788, 478.350 242.813, 478.167 243.234 C 477.983 243.655, 477.233 244, 476.500 244 C 475.767 244, 475.017 244.352, 474.833 244.783 C 474.650 245.214, 472.787 246.564, 470.693 247.783 C 468.599 249.002, 466.321 250, 465.631 250 C 464.942 250, 463.505 250.793, 462.439 251.763 C 461.372 252.733, 458.587 254.376, 456.250 255.415 C 453.913 256.454, 452 257.587, 452 257.933 C 452 258.279, 450.762 259.128, 449.250 259.820 C 447.738 260.512, 445.488 261.618, 444.250 262.277 C 443.012 262.935, 442 263.818, 442 264.237 C 442 264.657, 441.137 265, 440.083 265 C 439.029 265, 438.017 265.337, 437.833 265.750 C 437.650 266.163, 434.914 267.850, 431.753 269.500 C 428.593 271.150, 426.005 272.837, 426.003 273.250 C 426.002 273.663, 425.415 274, 424.700 274 C 423.985 274, 422.838 274.563, 422.150 275.250 C 421.462 275.938, 420.551 276.500, 420.124 276.500 C 419.696 276.500, 417.287 278.075, 414.769 280 C 412.251 281.925, 408.770 285.575, 407.034 288.111 C 405.297 290.647, 402.964 295.597, 401.849 299.111 C 400.261 304.114, 399.945 307.057, 400.392 312.679 C 400.746 317.134, 401.936 322.067, 403.528 325.679 C 405.013 329.051, 408.268 333.709, 411.262 336.750 C 414.105 339.637, 416.972 342, 417.633 342 C 418.293 342, 418.983 342.360, 419.167 342.801 C 419.350 343.241, 421.750 344.872, 424.500 346.425 C 427.250 347.978, 431.750 350.430, 434.500 351.873 C 437.250 353.316, 441.750 355.974, 444.500 357.780 C 447.250 359.586, 450.512 361.323, 451.750 361.640 C 452.988 361.957, 454 362.565, 454 362.991 C 454 363.417, 456.385 364.895, 459.299 366.275 C 462.213 367.655, 467.458 370.632, 470.954 372.892 C 474.450 375.151, 477.915 377, 478.655 377 C 479.395 377, 480 377.450, 480 378 C 480 378.550, 480.675 379, 481.500 379 C 482.325 379, 483 379.477, 483 380.059 C 483 380.641, 483.399 380.871, 483.887 380.570 C 484.374 380.269, 485.329 380.692, 486.009 381.511 C 486.689 382.330, 487.827 383, 488.539 383 C 489.251 383, 489.983 383.345, 490.167 383.766 C 490.350 384.187, 493.300 386.186, 496.723 388.207 C 500.146 390.229, 504.871 392.815, 507.223 393.955 C 509.575 395.094, 512.850 396.808, 514.500 397.763 C 516.150 398.719, 517.725 399.785, 518 400.134 C 518.275 400.483, 520.975 402.117, 524 403.765 C 527.025 405.413, 532.425 408.549, 536 410.734 C 539.575 412.920, 545.650 416.236, 549.500 418.104 C 556.053 421.283, 557.107 421.492, 566 421.370 C 574.588 421.252, 576.124 420.927, 582 417.981 C 585.660 416.146, 590.529 412.583, 593.144 409.825 C 595.698 407.131, 598.243 403.706, 598.800 402.214 C 599.357 400.721, 600.153 398.600, 600.570 397.500 C 600.986 396.400, 601.373 395.275, 601.429 395 C 601.485 394.725, 601.835 394.023, 602.207 393.439 C 602.579 392.856, 602.968 390.156, 603.071 387.439 C 603.174 384.723, 602.712 379.587, 602.044 376.026 C 601.377 372.466, 600.358 368.669, 599.780 367.589 C 599.202 366.509, 598.228 364.985, 597.615 364.201 C 597.002 363.418, 595.297 361.477, 593.827 359.889 C 592.357 358.300, 591.432 357, 591.771 357 C 592.111 357, 590.839 355.839, 588.944 354.420 C 587.050 353.001, 582.800 350.468, 579.500 348.791 C 576.200 347.114, 573.275 345.427, 573 345.043 C 572.725 344.658, 570.925 343.532, 569 342.541 C 567.075 341.549, 564.491 340.235, 563.258 339.619 C 562.025 339.004, 561.012 338.163, 561.008 337.750 C 561.004 337.337, 560.100 337, 559 337 C 557.900 337, 557 336.656, 557 336.236 C 557 335.816, 555.313 334.736, 553.250 333.836 C 551.188 332.937, 548.419 331.255, 547.097 330.100 C 545.775 328.945, 544.088 328, 543.347 328 C 542.606 328, 542 327.523, 542 326.941 C 542 326.359, 541.588 326.136, 541.085 326.447 C 540.582 326.758, 540.020 326.616, 539.835 326.130 C 539.651 325.645, 535.675 323.126, 531 320.532 C 526.325 317.938, 520.587 314.698, 518.250 313.333 C 515.913 311.967, 514 310.517, 514 310.109 C 514 309.702, 515.830 308.273, 518.066 306.934 C 520.303 305.595, 523.626 303.600, 525.451 302.500 C 527.277 301.400, 533.209 298.059, 538.635 295.075 C 544.061 292.091, 548.725 289.339, 549 288.960 C 549.275 288.580, 550.513 287.954, 551.750 287.567 C 552.987 287.181, 554 286.490, 554 286.030 C 554 285.571, 555.237 284.702, 556.750 284.099 C 558.263 283.496, 561.300 281.869, 563.500 280.484 C 565.700 279.099, 568.616 277.495, 569.980 276.920 C 571.343 276.345, 572.693 275.524, 572.980 275.094 C 573.266 274.665, 575.975 273.081, 579 271.573 C 582.025 270.066, 586.638 267.203, 589.250 265.211 C 591.862 263.219, 594 261.255, 594 260.846 C 594 260.437, 595.136 258.877, 596.524 257.379 C 597.912 255.881, 599.326 253.496, 599.664 252.078 C 600.003 250.660, 600.887 248.295, 601.629 246.822 C 602.370 245.350, 603.156 241.848, 603.375 239.042 C 603.594 236.235, 603.332 232.040, 602.793 229.719 C 602.254 227.399, 601.729 225.050, 601.626 224.500 C 601.524 223.950, 600.433 221.429, 599.202 218.897 C 597.971 216.365, 595.221 212.540, 593.091 210.397 C 590.962 208.254, 588.382 205.812, 587.360 204.972 C 586.337 204.131, 584.375 202.949, 583 202.346 C 581.625 201.743, 579.150 200.688, 577.500 200.002 C 575.850 199.316, 571.087 198.585, 566.916 198.378 C 562.744 198.171, 559.087 198.246, 558.788 198.545 M 29 199.711 C 28.175 199.957, 26.825 200.421, 26 200.743 C 25.175 201.064, 24.275 201.398, 24 201.485 C 23.725 201.572, 22.150 202.276, 20.500 203.051 C 18.850 203.826, 17.169 204.918, 16.765 205.480 C 16.361 206.042, 16.024 206.077, 16.015 205.559 C 16.007 205.042, 13.816 206.885, 11.146 209.655 C 8.476 212.425, 4.988 217.348, 3.396 220.596 C 0.773 225.944, 0.513 227.395, 0.638 236 C 0.743 243.230, 1.276 246.646, 2.872 250.296 C 4.025 252.934, 6.888 257.334, 9.234 260.074 C 12.199 263.537, 17.008 267.103, 25 271.766 C 31.325 275.457, 36.837 278.369, 37.250 278.238 C 37.662 278.107, 38 278.450, 38 279 C 38 279.550, 38.643 280, 39.429 280 C 40.214 280, 41.452 280.578, 42.179 281.284 C 42.905 281.990, 45.637 283.809, 48.250 285.326 C 50.862 286.843, 53.007 287.728, 53.015 287.292 C 53.024 286.856, 53.361 287.012, 53.765 287.637 C 54.169 288.262, 56.075 289.705, 58 290.842 C 59.925 291.980, 63.405 293.802, 65.733 294.892 C 68.062 295.981, 71.479 298.026, 73.328 299.436 C 75.176 300.846, 77.027 302, 77.440 302 C 77.853 302, 79.386 302.844, 80.846 303.876 C 82.306 304.908, 85.243 306.681, 87.373 307.816 L 91.246 309.880 87.873 311.881 C 86.018 312.981, 83.956 314.358, 83.292 314.941 C 82.628 315.523, 81.615 316, 81.042 316 C 80.469 316, 80 316.338, 80 316.752 C 80 317.165, 77.862 318.561, 75.250 319.853 C 72.638 321.145, 69.600 322.687, 68.500 323.280 C 67.400 323.873, 63.350 326.141, 59.500 328.321 C 55.650 330.501, 52.225 332.709, 51.888 333.227 C 51.552 333.746, 51.004 334.020, 50.671 333.835 C 50.337 333.651, 49.263 334.175, 48.282 335 C 47.302 335.825, 45.193 337.084, 43.596 337.799 C 41.999 338.513, 38.399 340.606, 35.596 342.451 C 32.793 344.295, 28.362 346.798, 25.750 348.012 C 23.137 349.227, 21 350.572, 21 351.002 C 21 351.432, 19.887 352.062, 18.527 352.404 C 17.168 352.745, 13.778 355.266, 10.995 358.005 C 8.212 360.744, 5.005 365.126, 3.867 367.743 C 2.730 370.359, 1.719 372.950, 1.622 373.500 C 1.524 374.050, 1.182 374.950, 0.861 375.500 C 0.541 376.050, 0.275 379.997, 0.269 384.271 C 0.263 388.545, 0.658 392.288, 1.146 392.590 C 1.633 392.891, 1.783 393.543, 1.477 394.037 C 1.171 394.532, 1.812 396.863, 2.902 399.218 C 3.991 401.573, 6.933 405.822, 9.440 408.660 C 11.947 411.499, 16.008 414.794, 18.464 415.983 C 20.920 417.172, 23.233 418.074, 23.603 417.987 C 23.973 417.900, 24.648 418.430, 25.102 419.165 C 25.701 420.134, 28.613 420.495, 35.714 420.481 C 41.096 420.470, 46.400 420.059, 47.500 419.567 C 48.600 419.075, 49.725 418.595, 50 418.500 C 50.275 418.405, 51.400 417.951, 52.500 417.490 C 53.600 417.030, 59 414.002, 64.500 410.761 C 70 407.521, 75.175 404.474, 76 403.989 C 76.825 403.504, 79.750 401.900, 82.500 400.425 C 85.250 398.950, 87.725 397.463, 88 397.121 C 88.275 396.780, 91.385 394.985, 94.912 393.134 C 98.438 391.282, 104.513 387.814, 108.412 385.426 C 112.310 383.038, 117.750 379.881, 120.500 378.411 C 123.250 376.941, 125.775 375.308, 126.112 374.783 C 126.448 374.259, 127.123 373.874, 127.612 373.929 C 128.100 373.983, 130.228 372.897, 132.340 371.514 C 134.452 370.131, 136.557 369, 137.018 369 C 137.480 369, 138.474 368.383, 139.227 367.630 C 139.981 366.876, 142.151 365.474, 144.049 364.514 C 145.947 363.554, 151.550 360.466, 156.500 357.652 C 161.450 354.837, 166.122 351.937, 166.883 351.206 C 167.643 350.476, 170.005 349.181, 172.133 348.330 C 174.260 347.479, 176 346.382, 176 345.891 C 176 345.401, 176.706 345, 177.570 345 C 178.433 345, 181.246 343.551, 183.820 341.781 C 186.394 340.011, 189.960 336.973, 191.745 335.031 C 193.530 333.089, 194.993 330.993, 194.995 330.372 C 194.998 329.752, 195.670 328.689, 196.489 328.009 C 197.308 327.329, 197.731 326.374, 197.430 325.887 C 197.129 325.399, 197.434 325, 198.108 325 C 198.782 325, 199.057 324.724, 198.720 324.387 C 198.383 324.049, 198.807 322.024, 199.662 319.887 C 200.772 317.113, 201.096 313.757, 200.794 308.168 C 200.463 302.032, 199.700 298.947, 197.273 293.918 C 195.569 290.388, 192.898 286.265, 191.338 284.755 C 189.777 283.245, 187.194 280.922, 185.599 279.593 C 184.003 278.264, 180.178 275.949, 177.099 274.450 C 174.019 272.950, 171.275 271.394, 171 270.993 C 170.725 270.591, 168.250 269.062, 165.500 267.595 C 162.750 266.128, 158.700 263.850, 156.500 262.533 C 154.300 261.215, 150.941 259.414, 149.035 258.530 C 147.129 257.646, 145.329 256.581, 145.035 256.163 C 144.741 255.746, 142.250 254.098, 139.500 252.501 C 136.750 250.905, 132.925 248.758, 131 247.730 C 129.075 246.702, 125.700 244.763, 123.500 243.422 C 121.300 242.080, 118.263 240.438, 116.750 239.772 C 115.237 239.106, 114 238.210, 114 237.781 C 114 237.351, 113.100 237, 112 237 C 110.900 237, 110 236.634, 110 236.187 C 110 235.739, 108.425 234.755, 106.500 234 C 104.575 233.245, 103 232.261, 103 231.813 C 103 231.366, 102.362 231, 101.583 231 C 100.804 231, 100.017 230.646, 99.833 230.213 C 99.650 229.780, 97.475 228.256, 95 226.827 C 92.525 225.397, 88.700 223.216, 86.500 221.979 C 84.300 220.742, 80.700 218.796, 78.500 217.654 C 76.300 216.513, 73.905 214.998, 73.179 214.289 C 72.452 213.580, 71.214 213, 70.429 213 C 69.643 213, 69 212.523, 69 211.941 C 69 211.359, 68.550 211.160, 68 211.500 C 67.450 211.840, 67 211.736, 67 211.270 C 67 210.804, 64.412 209.092, 61.250 207.467 C 58.087 205.841, 55.275 204.237, 55 203.903 C 54.725 203.569, 51.800 202.381, 48.500 201.262 C 45.055 200.094, 39.945 199.236, 36.500 199.246 C 33.200 199.255, 29.825 199.465, 29 199.711 M 1209.774 221.538 C 1209.623 221.677, 1207.475 222.063, 1205 222.397 C 1202.525 222.730, 1199.375 223.263, 1198 223.581 C 1196.625 223.898, 1194.568 224.299, 1193.429 224.471 C 1192.291 224.643, 1189.083 225.938, 1186.301 227.347 C 1183.520 228.757, 1181.028 229.695, 1180.764 229.431 C 1180.501 229.167, 1179.716 229.638, 1179.020 230.476 C 1178.324 231.314, 1177.222 232, 1176.570 232 C 1175.919 232, 1174.061 233.097, 1172.443 234.438 C 1170.824 235.779, 1169.063 237.016, 1168.529 237.188 C 1167.995 237.360, 1166.195 238.752, 1164.529 240.282 C 1162.863 241.813, 1161.138 243.388, 1160.695 243.782 C 1160.252 244.177, 1157.911 246.637, 1155.493 249.250 C 1153.074 251.863, 1151.412 254.014, 1151.798 254.032 C 1152.184 254.049, 1151.788 254.612, 1150.917 255.282 C 1150.047 255.952, 1147.009 260.938, 1144.166 266.362 C 1141.324 271.787, 1138.823 277.192, 1138.608 278.375 C 1138.394 279.557, 1137.484 282.994, 1136.586 286.012 C 1135.688 289.031, 1134.678 294.200, 1134.341 297.500 C 1134.004 300.800, 1133.658 306.875, 1133.572 311 C 1133.487 315.125, 1133.754 319.224, 1134.167 320.108 C 1134.580 320.992, 1135.013 323.467, 1135.130 325.608 C 1135.246 327.749, 1135.662 329.950, 1136.055 330.500 C 1136.448 331.050, 1137.133 333.075, 1137.578 335 C 1138.023 336.925, 1138.425 338.725, 1138.470 339 C 1138.516 339.275, 1140.004 342.538, 1141.776 346.250 C 1143.548 349.963, 1144.886 353.124, 1144.749 353.274 C 1144.612 353.424, 1145.513 354.634, 1146.750 355.962 C 1147.987 357.290, 1149 358.967, 1149 359.689 C 1149 360.410, 1149.438 361, 1149.974 361 C 1150.510 361, 1151.598 362.256, 1152.391 363.790 C 1153.185 365.325, 1155.718 368.362, 1158.020 370.540 C 1160.322 372.718, 1163.171 375.416, 1164.352 376.537 C 1165.534 377.657, 1168.525 379.957, 1171 381.650 C 1173.475 383.342, 1176.513 385.043, 1177.750 385.430 C 1178.987 385.818, 1180 386.554, 1180 387.067 C 1180 387.580, 1180.800 388, 1181.777 388 C 1182.755 388, 1184.668 388.779, 1186.027 389.732 C 1187.387 390.684, 1188.612 391.359, 1188.750 391.232 C 1188.888 391.104, 1189.112 391.034, 1189.250 391.077 C 1189.388 391.119, 1190.175 391.331, 1191 391.548 C 1191.825 391.765, 1195.612 392.639, 1199.415 393.490 C 1203.219 394.342, 1209.969 395.023, 1214.415 395.004 C 1218.862 394.985, 1223.628 394.803, 1225.007 394.600 C 1226.386 394.396, 1230.661 393.292, 1234.507 392.147 C 1238.353 391.001, 1241.839 390.053, 1242.254 390.039 C 1242.668 390.024, 1245.593 388.564, 1248.754 386.793 C 1251.914 385.022, 1257.200 381.613, 1260.500 379.218 C 1263.800 376.823, 1268.397 372.848, 1270.715 370.385 C 1273.034 367.922, 1275.952 364.465, 1277.201 362.703 C 1278.450 360.941, 1280.153 358.698, 1280.986 357.718 C 1281.819 356.737, 1282.520 355.612, 1282.545 355.218 C 1282.570 354.823, 1283.669 352.475, 1284.987 350 C 1286.306 347.525, 1287.505 345.050, 1287.652 344.500 C 1287.799 343.950, 1288.869 340.800, 1290.029 337.500 C 1291.190 334.200, 1292.314 330.677, 1292.528 329.670 C 1292.741 328.664, 1293.159 327.073, 1293.457 326.136 C 1293.754 325.198, 1294.205 322.422, 1294.457 319.966 C 1294.710 317.510, 1294.985 312.575, 1295.069 309 C 1295.152 305.425, 1294.897 300.250, 1294.501 297.500 C 1294.105 294.750, 1292.971 289.575, 1291.981 286 C 1290.990 282.425, 1289.352 277.250, 1288.340 274.500 C 1287.328 271.750, 1286.198 269.270, 1285.829 268.990 C 1285.460 268.709, 1284.849 267.247, 1284.471 265.740 C 1284.093 264.233, 1283.494 262.999, 1283.142 262.998 C 1282.789 262.997, 1281.155 260.860, 1279.512 258.248 C 1277.868 255.637, 1275.843 252.676, 1275.012 251.669 C 1274.180 250.662, 1271.194 247.512, 1268.375 244.669 C 1265.557 241.826, 1261.794 238.397, 1260.013 237.048 C 1258.232 235.700, 1255.814 234.092, 1254.638 233.475 C 1253.462 232.859, 1251.375 231.712, 1250 230.927 C 1248.625 230.142, 1247.275 229.275, 1247 229 C 1246.725 228.725, 1244.925 227.898, 1243 227.162 C 1241.075 226.426, 1237.925 225.401, 1236 224.883 C 1234.075 224.366, 1231.600 223.713, 1230.500 223.433 C 1229.400 223.153, 1226.700 222.712, 1224.500 222.453 C 1222.300 222.194, 1218.148 221.825, 1215.274 221.634 C 1212.399 221.443, 1209.924 221.399, 1209.774 221.538 M 1995.928 221.381 C 1995.693 221.604, 1992.156 222.082, 1988.070 222.445 C 1983.983 222.808, 1980.273 223.332, 1979.824 223.609 C 1979.375 223.886, 1978.218 224.295, 1977.254 224.517 C 1976.289 224.739, 1973.577 225.614, 1971.227 226.463 C 1968.877 227.312, 1963.993 229.805, 1960.375 232.003 C 1956.756 234.201, 1953.663 236, 1953.501 236 C 1953.338 236, 1951.762 237.238, 1949.996 238.750 C 1948.231 240.262, 1944.848 243.525, 1942.478 246 C 1940.107 248.475, 1936.292 252.863, 1933.999 255.750 C 1931.706 258.637, 1930.206 261.007, 1930.665 261.015 C 1931.124 261.024, 1930.998 261.361, 1930.385 261.765 C 1929.772 262.169, 1927.586 266.325, 1925.527 271 C 1923.468 275.675, 1921.695 280.049, 1921.587 280.721 C 1921.479 281.393, 1921.078 282.255, 1920.696 282.638 C 1920.313 283.020, 1920 284.758, 1920 286.500 C 1920 288.242, 1919.725 289.941, 1919.390 290.277 C 1919.054 290.613, 1918.550 293.050, 1918.268 295.694 C 1917.987 298.337, 1917.798 305.111, 1917.847 310.746 C 1917.914 318.303, 1918.644 323.814, 1920.630 331.746 C 1922.110 337.661, 1924.389 344.413, 1925.693 346.750 C 1926.997 349.087, 1927.813 351, 1927.506 351 C 1927.200 351, 1929.651 354.712, 1932.953 359.250 C 1936.255 363.788, 1940.748 369.394, 1942.937 371.708 C 1945.126 374.023, 1949.726 377.961, 1953.159 380.458 C 1956.592 382.956, 1959.985 385, 1960.700 385 C 1961.415 385, 1962 385.357, 1962 385.793 C 1962 386.229, 1964.475 387.427, 1967.500 388.455 C 1970.525 389.484, 1973 390.627, 1973 390.996 C 1973 391.365, 1973.563 391.715, 1974.250 391.775 C 1974.938 391.834, 1976.400 392.100, 1977.500 392.365 C 1978.600 392.630, 1979.725 392.935, 1980 393.042 C 1980.275 393.149, 1980.787 393.200, 1981.137 393.156 C 1981.488 393.111, 1983.288 393.524, 1985.137 394.073 C 1986.987 394.623, 1992.325 395.022, 1997 394.962 C 2001.675 394.902, 2006.850 394.709, 2008.500 394.534 C 2010.150 394.359, 2015.100 393.167, 2019.500 391.886 C 2023.900 390.605, 2031.325 387.422, 2036 384.814 C 2040.831 382.118, 2047.404 377.281, 2051.228 373.607 C 2054.928 370.052, 2060.391 363.565, 2063.369 359.192 C 2066.347 354.819, 2069.373 349.611, 2070.093 347.620 C 2070.813 345.629, 2071.761 344, 2072.201 344 C 2072.640 344, 2072.947 343.663, 2072.882 343.250 C 2072.816 342.837, 2072.850 342.275, 2072.956 342 C 2073.062 341.725, 2073.349 340.410, 2073.594 339.078 C 2073.839 337.747, 2074.536 336.059, 2075.142 335.328 C 2075.749 334.598, 2075.989 334, 2075.676 334 C 2075.364 334, 2075.826 331.637, 2076.704 328.750 C 2077.844 325.002, 2078.297 319.495, 2078.287 309.500 C 2078.279 301.800, 2078.038 294.375, 2077.750 293 C 2077.463 291.625, 2076.714 288.475, 2076.086 286 C 2075.458 283.525, 2074.744 280.642, 2074.499 279.593 C 2074.254 278.544, 2071.930 273.369, 2069.334 268.093 C 2066.738 262.817, 2064.138 257.976, 2063.557 257.336 C 2062.976 256.696, 2061.427 254.772, 2060.116 253.059 C 2058.805 251.347, 2055.430 247.592, 2052.616 244.715 C 2049.802 241.838, 2045.588 237.987, 2043.250 236.158 C 2040.912 234.329, 2039 233.164, 2039 233.571 C 2039 233.977, 2038.213 233.656, 2037.250 232.856 C 2036.287 232.056, 2033.025 230.304, 2030 228.962 C 2026.975 227.619, 2024.275 226.291, 2024 226.011 C 2023.725 225.730, 2022.825 225.332, 2022 225.126 C 2021.175 224.921, 2018.925 224.374, 2017 223.910 C 2015.075 223.447, 2011.025 222.814, 2008 222.504 C 2004.975 222.193, 2001.118 221.723, 1999.428 221.458 C 1997.739 221.193, 1996.164 221.158, 1995.928 221.381 M 2438.507 222.826 C 2438.239 223.095, 2435.877 223.695, 2433.260 224.159 C 2430.642 224.624, 2428.050 225.149, 2427.500 225.326 C 2426.950 225.502, 2424.925 226.327, 2423 227.159 C 2421.075 227.992, 2418.294 228.972, 2416.820 229.338 C 2415.346 229.704, 2413.546 230.580, 2412.820 231.285 C 2412.094 231.991, 2409.317 233.836, 2406.648 235.386 C 2403.980 236.936, 2401.008 238.945, 2400.044 239.852 C 2399.081 240.758, 2395.976 243.606, 2393.146 246.179 C 2390.316 248.752, 2388 251.302, 2388 251.846 C 2388 252.389, 2387.644 252.983, 2387.209 253.167 C 2386.773 253.350, 2385.242 255.075, 2383.805 257 C 2382.368 258.925, 2379.525 263.875, 2377.486 268 C 2375.447 272.125, 2373.429 276.400, 2373 277.500 C 2372.571 278.600, 2371.721 281.352, 2371.110 283.616 C 2370.500 285.880, 2370 288.017, 2370 288.366 C 2370 288.715, 2406.423 289, 2450.939 289 L 2531.879 289 2530.344 284.250 C 2529.499 281.637, 2527.860 277.025, 2526.701 274 C 2525.543 270.975, 2524.046 267.825, 2523.376 267 C 2522.706 266.175, 2522.010 264.825, 2521.829 264 C 2521.648 263.175, 2521.272 262.275, 2520.994 262 C 2520.716 261.725, 2519.254 259.843, 2517.744 257.817 C 2516.235 255.791, 2515 253.894, 2515 253.601 C 2515 253.308, 2511.804 249.904, 2507.897 246.036 C 2503.991 242.168, 2498.929 237.764, 2496.647 236.249 C 2494.366 234.734, 2490.475 232.504, 2488 231.294 C 2485.525 230.085, 2481.700 228.332, 2479.500 227.400 C 2477.300 226.469, 2475.050 225.571, 2474.500 225.406 C 2473.950 225.240, 2472.150 224.830, 2470.500 224.494 C 2468.850 224.159, 2465.856 223.518, 2463.846 223.070 C 2461.837 222.622, 2455.423 222.274, 2449.594 222.297 C 2443.765 222.320, 2438.776 222.558, 2438.507 222.826 M 290.500 241.032 C 288.533 241.620, 278.312 251.160, 260.810 268.743 C 246.130 283.490, 233.615 296.883, 232.998 298.505 C 232.382 300.126, 231.965 305.963, 232.071 311.476 L 232.265 321.500 259.817 349.173 C 274.970 364.394, 288.382 377.309, 289.622 377.873 C 290.861 378.438, 296.741 378.803, 302.687 378.685 L 313.500 378.469 341.943 349.985 L 370.386 321.500 370.813 312.797 C 371.048 308.010, 370.932 302.450, 370.555 300.441 C 369.973 297.340, 365.726 292.650, 342.439 269.394 C 327.352 254.327, 314.331 242, 313.504 242 C 312.677 242, 312 241.607, 312 241.127 C 312 240.647, 307.837 240.227, 302.750 240.194 C 297.663 240.161, 292.150 240.538, 290.500 241.032 M 297.500 286.423 C 296.400 286.962, 291.345 291.799, 286.266 297.171 C 278.440 305.449, 277.083 307.373, 277.363 309.786 C 277.546 311.351, 278.101 313.348, 278.597 314.223 C 279.094 315.098, 282.613 319.118, 286.418 323.157 C 290.223 327.196, 294.682 331.324, 296.327 332.332 C 298.451 333.633, 300.298 333.979, 302.705 333.528 C 305.083 333.081, 308.711 330.450, 314.880 324.696 C 320.508 319.446, 324.069 315.279, 324.785 313.102 C 325.646 310.487, 325.602 308.984, 324.596 306.575 C 323.877 304.854, 319.592 299.679, 315.074 295.076 C 308.590 288.468, 306.086 286.573, 303.180 286.074 C 301.156 285.727, 298.600 285.884, 297.500 286.423 M 222.933 389.931 C 222.071 390.461, 220.136 391.118, 218.632 391.390 C 217.128 391.663, 214.008 392.962, 211.699 394.276 C 209.390 395.591, 205.700 397.694, 203.500 398.950 C 201.300 400.206, 198.375 402.003, 197 402.942 C 195.625 403.882, 192.475 405.639, 190 406.847 C 187.525 408.055, 183.475 410.205, 181 411.625 C 178.525 413.045, 174.700 415.391, 172.500 416.837 C 170.300 418.284, 166.250 420.652, 163.500 422.099 C 160.750 423.546, 156.250 426.006, 153.500 427.564 C 150.750 429.123, 148.350 430.759, 148.167 431.199 C 147.983 431.640, 147.251 432, 146.539 432 C 145.827 432, 144.689 432.670, 144.009 433.489 C 143.329 434.308, 142.374 434.731, 141.887 434.430 C 141.399 434.129, 141 434.359, 141 434.941 C 141 435.523, 140.325 436, 139.500 436 C 138.675 436, 138 436.477, 138 437.059 C 138 437.641, 137.662 437.921, 137.250 437.679 C 136.838 437.438, 133.800 438.969, 130.500 441.081 C 127.200 443.193, 121.824 446.293, 118.553 447.970 C 115.282 449.647, 112.357 451.365, 112.053 451.787 C 111.749 452.210, 109.588 453.399, 107.250 454.429 C 104.913 455.460, 103 456.685, 103 457.152 C 103 457.618, 102.394 458, 101.653 458 C 100.912 458, 99.268 458.900, 98 460 C 96.732 461.100, 95.088 462, 94.347 462 C 93.606 462, 93 462.401, 93 462.892 C 93 463.382, 91.950 464.047, 90.666 464.369 C 89.382 464.691, 86.620 466.315, 84.528 467.977 C 82.437 469.640, 80.307 471, 79.795 471 C 79.284 471, 77.262 472.688, 75.302 474.750 C 73.342 476.813, 70.352 481.425, 68.658 485 C 65.992 490.624, 65.583 492.578, 65.626 499.500 C 65.654 503.900, 65.906 508.400, 66.188 509.500 C 66.469 510.600, 67.025 512.400, 67.423 513.500 C 67.821 514.600, 68.783 516.967, 69.562 518.760 C 70.340 520.553, 72.783 523.979, 74.990 526.373 C 77.197 528.768, 81.815 532.094, 85.252 533.765 C 88.688 535.436, 93.525 537.148, 96 537.570 C 98.475 537.992, 102.440 538.270, 104.811 538.188 C 107.182 538.105, 111.232 537.325, 113.811 536.455 C 116.390 535.584, 120.412 533.920, 122.750 532.758 C 125.088 531.596, 127 530.275, 127 529.823 C 127 529.370, 127.458 529, 128.017 529 C 128.577 529, 133.117 526.638, 138.107 523.750 C 143.096 520.862, 148.376 517.868, 149.839 517.096 C 151.303 516.323, 152.725 515.390, 153 515.022 C 153.275 514.655, 157.550 512.204, 162.500 509.577 C 167.450 506.949, 172.175 504.223, 173 503.518 C 173.825 502.813, 175.512 501.928, 176.750 501.551 C 177.988 501.174, 179 500.482, 179 500.014 C 179 499.546, 181.250 498.146, 184 496.903 C 186.750 495.660, 189 494.326, 189 493.938 C 189 493.550, 190.125 493.018, 191.500 492.755 L 194 492.277 194.038 535.389 C 194.059 559.100, 194.327 580.300, 194.635 582.500 C 194.942 584.700, 196.388 588.712, 197.846 591.416 C 199.305 594.120, 202.749 598.578, 205.499 601.322 C 208.250 604.067, 212.975 607.446, 216 608.831 C 220.589 610.932, 222.991 611.347, 230.500 611.338 C 235.450 611.332, 240.400 611.063, 241.500 610.740 C 242.600 610.417, 243.500 610.084, 243.500 610 C 243.500 609.916, 244.327 609.690, 245.338 609.499 C 246.348 609.308, 247.959 608.442, 248.916 607.576 C 249.874 606.709, 251.185 606, 251.829 606 C 252.473 606, 253 605.550, 253 605 C 253 604.450, 253.454 604, 254.009 604 C 254.563 604, 256.351 602.812, 257.981 601.359 C 259.611 599.907, 260.705 598.332, 260.413 597.859 C 260.121 597.387, 260.347 597, 260.915 597 C 261.484 597, 262.729 595.538, 263.682 593.750 C 264.636 591.962, 265.491 590.163, 265.583 589.750 C 265.675 589.337, 265.863 588.775, 266 588.500 C 266.137 588.225, 266.345 587.663, 266.461 587.250 C 266.578 586.837, 267.084 585.600, 267.586 584.500 C 268.114 583.345, 268.500 548.071, 268.500 501 C 268.500 422.709, 268.424 419.303, 266.559 414.500 C 265.491 411.750, 263.916 408.375, 263.059 407 C 262.202 405.625, 259.429 402.445, 256.897 399.934 C 254.365 397.422, 250.547 394.538, 248.412 393.525 C 246.278 392.512, 242.949 391.288, 241.015 390.804 C 239.082 390.320, 234.575 389.709, 231 389.446 C 227.425 389.183, 223.795 389.401, 222.933 389.931 M 364.297 390.080 C 361.985 390.520, 359.060 391.452, 357.797 392.152 C 356.533 392.852, 355.163 393.329, 354.750 393.212 C 354.337 393.096, 354 393.450, 354 394 C 354 394.550, 353.311 395, 352.469 395 C 351.627 395, 348.307 397.623, 345.091 400.830 C 341.874 404.036, 338.927 407.749, 338.542 409.080 C 338.156 410.411, 337.089 413.075, 336.170 415 C 334.653 418.180, 334.500 425.824, 334.500 498.500 C 334.500 542.500, 334.784 579.850, 335.132 581.500 C 335.480 583.150, 336.342 585.850, 337.048 587.500 C 337.755 589.150, 338.426 590.837, 338.541 591.250 C 338.656 591.663, 338.806 592.502, 338.875 593.116 C 338.944 593.730, 342.072 597.233, 345.827 600.899 C 350.635 605.594, 353.962 607.959, 357.077 608.897 C 359.510 609.629, 362.490 610.691, 363.700 611.256 C 365.006 611.867, 369.405 612.046, 374.529 611.699 C 379.276 611.376, 383.798 610.582, 384.579 609.934 C 385.361 609.286, 386.007 609.148, 386.015 609.628 C 386.024 610.107, 386.361 610.049, 386.765 609.498 C 387.169 608.948, 388.811 607.823, 390.414 606.998 C 392.016 606.174, 395.504 603.546, 398.164 601.157 C 400.824 598.769, 403 596.388, 403 595.867 C 403 595.346, 403.889 593.700, 404.976 592.210 C 406.062 590.719, 407.603 587.025, 408.399 584 C 409.570 579.553, 409.814 570.245, 409.674 535.364 L 409.500 492.228 413.497 494.364 C 415.696 495.539, 417.826 496.950, 418.232 497.500 C 418.638 498.050, 418.976 498.152, 418.985 497.727 C 418.993 497.302, 420.238 497.741, 421.750 498.704 C 423.262 499.666, 424.725 500.689, 425 500.977 C 425.275 501.265, 427.300 502.533, 429.500 503.795 C 431.700 505.057, 435.075 506.857, 437 507.795 C 438.925 508.733, 440.650 509.837, 440.833 510.250 C 441.017 510.663, 441.586 511, 442.099 511 C 442.611 511, 445.386 512.500, 448.265 514.333 C 451.144 516.166, 455.892 519.091, 458.816 520.833 C 461.740 522.575, 464.778 524, 465.566 524 C 466.355 524, 467 524.351, 467 524.781 C 467 525.210, 468.238 526.094, 469.750 526.744 C 471.262 527.395, 473.400 528.506, 474.500 529.214 C 475.600 529.921, 476.725 530.728, 477 531.008 C 477.275 531.287, 479.975 532.847, 483 534.475 C 488.088 537.212, 489.294 537.437, 499.087 537.467 C 506.039 537.489, 510.674 537.029, 512.587 536.128 C 514.189 535.374, 516.850 534.068, 518.500 533.227 C 520.150 532.386, 523.674 529.403, 526.331 526.599 C 528.987 523.795, 532.061 519.760, 533.161 517.633 C 534.260 515.506, 535.387 512.806, 535.665 511.633 C 535.944 510.460, 536.548 507.700, 537.009 505.500 C 537.470 503.300, 537.626 499.700, 537.357 497.500 C 537.087 495.300, 536.374 491.925, 535.773 490 C 535.172 488.075, 533.551 484.475, 532.171 482 C 530.791 479.525, 527.695 475.587, 525.292 473.250 C 522.889 470.913, 520.472 469, 519.920 469 C 519.368 469, 517.950 468.100, 516.770 467 C 515.589 465.900, 513.808 465, 512.811 465 C 511.815 465, 511 464.622, 511 464.161 C 511 463.699, 509.762 462.720, 508.250 461.986 C 506.738 461.252, 505.245 460.702, 504.933 460.765 C 504.621 460.827, 503.089 459.780, 501.527 458.439 C 499.966 457.098, 498.331 456, 497.895 456 C 497.458 456, 495.165 454.697, 492.800 453.105 C 490.435 451.513, 485.575 448.738, 482 446.939 C 478.425 445.139, 475.275 443.366, 475 442.998 C 474.725 442.629, 470.450 440.138, 465.500 437.462 C 460.550 434.786, 455.905 432.012, 455.179 431.298 C 454.452 430.584, 453.448 430, 452.948 430 C 452.448 430, 449.668 428.487, 446.769 426.637 C 443.871 424.787, 439.057 422.039, 436.071 420.529 C 433.085 419.020, 430.015 417.158, 429.250 416.392 C 428.484 415.627, 427.252 415, 426.512 415 C 425.772 415, 425.017 414.642, 424.833 414.203 C 424.650 413.765, 421.350 411.610, 417.500 409.414 C 413.650 407.218, 409.038 404.822, 407.250 404.089 C 405.462 403.357, 404 402.449, 404 402.071 C 404 401.694, 402.132 400.561, 399.849 399.554 C 397.566 398.546, 394.852 396.997, 393.817 396.111 C 392.782 395.225, 391.612 394.460, 391.218 394.411 C 390.823 394.362, 388.278 393.291, 385.563 392.031 C 382.470 390.596, 378.361 389.655, 374.563 389.511 C 371.228 389.384, 366.608 389.641, 364.297 390.080" stroke="none" fill="#24b4ec" fill-rule="evenodd"/></svg>